<?xml version="1.0" encoding="utf-8"?>
<!-- Generator: Adobe Illustrator 16.0.0, SVG Export Plug-In . SVG Version: 6.00 Build 0)  -->
<!DOCTYPE svg PUBLIC "-//W3C//DTD SVG 1.1//EN" "http://www.w3.org/Graphics/SVG/1.1/DTD/svg11.dtd">
<svg version="1.1" id="Layer_1" xmlns="http://www.w3.org/2000/svg" xmlns:xlink="http://www.w3.org/1999/xlink" x="0px" y="0px"
	 width="24px" height="24px" viewBox="0 0 24 24" enable-background="new 0 0 24 24" xml:space="preserve">
<path fill="#E0E0E0" d="M16,8V5H8v3H6V3h12v5H16z M4,10h16H4z M18,12.5c0.283,0,0.521-0.096,0.713-0.288
	C18.904,12.021,19,11.783,19,11.5s-0.096-0.521-0.287-0.712C18.521,10.596,18.283,10.5,18,10.5s-0.521,0.096-0.713,0.288
	C17.096,10.979,17,11.217,17,11.5s0.096,0.521,0.287,0.712C17.479,12.404,17.717,12.5,18,12.5z M16,19v-4H8v4H16z M18,21H6v-4H2v-6
	c0-0.85,0.292-1.563,0.875-2.138C3.458,8.288,4.167,8,5,8h14c0.85,0,1.563,0.288,2.138,0.862C21.713,9.438,22,10.15,22,11v6h-4V21z
	 M20,15v-4c0-0.283-0.096-0.521-0.287-0.712C19.521,10.096,19.283,10,19,10H5c-0.283,0-0.521,0.096-0.712,0.288
	C4.096,10.479,4,10.717,4,11v4h2v-2h12v2H20z"/>
</svg>
