<?xml version="1.0" encoding="utf-8"?>
<!-- Generator: Adobe Illustrator 16.0.0, SVG Export Plug-In . SVG Version: 6.00 Build 0)  -->
<!DOCTYPE svg PUBLIC "-//W3C//DTD SVG 1.1//EN" "http://www.w3.org/Graphics/SVG/1.1/DTD/svg11.dtd">
<svg version="1.1" id="Layer_1" xmlns="http://www.w3.org/2000/svg" xmlns:xlink="http://www.w3.org/1999/xlink" x="0px" y="0px"
	 width="24px" height="24px" viewBox="0 0 24 24" enable-background="new 0 0 24 24" xml:space="preserve">
<path fill="#E0E0E0" d="M18,22c-0.834,0-1.541-0.291-2.125-0.875S15,19.834,15,19c0-0.1,0.025-0.334,0.075-0.7L8.05,14.2
	c-0.267,0.25-0.575,0.446-0.925,0.587C6.775,14.93,6.4,15,6,15c-0.833,0-1.542-0.291-2.125-0.875S3,12.834,3,12
	c0-0.833,0.292-1.542,0.875-2.125S5.167,9,6,9c0.4,0,0.775,0.071,1.125,0.212S7.783,9.55,8.05,9.8l7.025-4.1
	c-0.034-0.117-0.054-0.229-0.063-0.338S15,5.133,15,5c0-0.833,0.291-1.542,0.875-2.125S17.166,2,18,2s1.541,0.292,2.125,0.875
	S21,4.167,21,5s-0.291,1.542-0.875,2.125S18.834,8,18,8c-0.4,0-0.775-0.071-1.125-0.212S16.217,7.45,15.95,7.2l-7.025,4.1
	c0.034,0.117,0.054,0.229,0.063,0.338S9,11.867,9,12s-0.004,0.254-0.013,0.362S8.958,12.584,8.925,12.7l7.025,4.1
	c0.267-0.25,0.575-0.446,0.925-0.587C17.225,16.07,17.6,16,18,16c0.834,0,1.541,0.291,2.125,0.875S21,18.166,21,19
	s-0.291,1.541-0.875,2.125S18.834,22,18,22z M18,20c0.283,0,0.521-0.096,0.713-0.287S19,19.283,19,19s-0.096-0.521-0.287-0.713
	S18.283,18,18,18s-0.521,0.096-0.713,0.287S17,18.717,17,19s0.096,0.521,0.287,0.713S17.717,20,18,20z M6,13
	c0.283,0,0.521-0.096,0.712-0.287C6.904,12.521,7,12.283,7,12s-0.096-0.521-0.288-0.712C6.521,11.096,6.283,11,6,11
	s-0.521,0.096-0.712,0.288C5.096,11.479,5,11.717,5,12s0.096,0.521,0.288,0.713C5.479,12.904,5.717,13,6,13z M18,6
	c0.283,0,0.521-0.096,0.713-0.288C18.904,5.521,19,5.283,19,5s-0.096-0.521-0.287-0.712C18.521,4.096,18.283,4,18,4
	s-0.521,0.096-0.713,0.288C17.096,4.479,17,4.717,17,5s0.096,0.521,0.287,0.712C17.479,5.904,17.717,6,18,6z"/>
</svg>
