<?xml version="1.0" encoding="utf-8"?>
<!-- Generator: Adobe Illustrator 16.0.0, SVG Export Plug-In . SVG Version: 6.00 Build 0)  -->
<!DOCTYPE svg PUBLIC "-//W3C//DTD SVG 1.1//EN" "http://www.w3.org/Graphics/SVG/1.1/DTD/svg11.dtd">
<svg version="1.1" id="Layer_1" xmlns="http://www.w3.org/2000/svg" xmlns:xlink="http://www.w3.org/1999/xlink" x="0px" y="0px"
	 width="80px" height="80px" viewBox="0 0 80 80" enable-background="new 0 0 80 80" xml:space="preserve">
<g>
	<g>
		
			<path fill="none" stroke="#737373" stroke-width="3.5" stroke-linecap="round" stroke-linejoin="round" stroke-miterlimit="10" d="
			M65.094,61.179c-0.42,0-0.824-0.13-1.166-0.377l-10.188-7.358v4.222c0,1.099-0.894,1.993-1.993,1.993H16.268
			c-1.1,0-1.994-0.895-1.994-1.993V29.788c0-1.099,0.894-1.993,1.994-1.993h35.479c1.1,0,1.993,0.894,1.993,1.993v4.222
			l10.188-7.359c0.609-0.435,1.401-0.497,2.071-0.16c0.002,0.001,0.004,0.002,0.005,0.003c0.669,0.343,1.085,1.023,1.085,1.774
			v30.917c0,0.752-0.416,1.432-1.085,1.774C65.714,61.104,65.402,61.179,65.094,61.179z"/>
	</g>
	
		<polyline fill="none" stroke="#737373" stroke-width="3.5" stroke-linecap="round" stroke-linejoin="round" stroke-miterlimit="10" points="
		45.076,27.795 40.775,18.948 14.274,18.948 	"/>
	
		<line fill="none" stroke="#E4007E" stroke-width="3.5" stroke-linecap="round" stroke-linejoin="round" stroke-miterlimit="10" x1="21.938" y1="36.773" x2="46.076" y2="36.773"/>
</g>
</svg>
