<?xml version="1.0" encoding="utf-8"?>
<!-- Generator: Adobe Illustrator 16.0.0, SVG Export Plug-In . SVG Version: 6.00 Build 0)  -->
<!DOCTYPE svg PUBLIC "-//W3C//DTD SVG 1.1//EN" "http://www.w3.org/Graphics/SVG/1.1/DTD/svg11.dtd">
<svg version="1.1" id="Layer_1" xmlns="http://www.w3.org/2000/svg" xmlns:xlink="http://www.w3.org/1999/xlink" x="0px" y="0px"
	 width="80px" height="80px" viewBox="0 0 80 80" enable-background="new 0 0 80 80" xml:space="preserve">
<g>
	<g>
		
			<path fill="none" stroke="#E4007E" stroke-width="3.5" stroke-linecap="round" stroke-linejoin="round" stroke-miterlimit="10" d="
			M15.565,24.325c-7.265,8.04-7.265,21.076,0,29.116"/>
		
			<path fill="none" stroke="#E4007E" stroke-width="3.5" stroke-linecap="round" stroke-linejoin="round" stroke-miterlimit="10" d="
			M9.297,19.385c-9.729,10.769-9.729,28.229,0,38.996"/>
	</g>
	<g>
		
			<path fill="none" stroke="#E4007E" stroke-width="3.5" stroke-linecap="round" stroke-linejoin="round" stroke-miterlimit="10" d="
			M63.871,24.325c7.265,8.04,7.265,21.076,0,29.116"/>
		
			<path fill="none" stroke="#E4007E" stroke-width="3.5" stroke-linecap="round" stroke-linejoin="round" stroke-miterlimit="10" d="
			M70.139,19.385c9.73,10.769,9.73,28.229,0,38.996"/>
	</g>
	<g>
		<g>
			<path fill="#737373" d="M35.702,45.224c-0.127,0-0.255-0.033-0.369-0.1c-0.229-0.132-0.37-0.376-0.37-0.64V32.901
				c0-0.264,0.142-0.509,0.37-0.641c0.229-0.133,0.51-0.133,0.739,0l10.031,5.792c0.229,0.132,0.369,0.376,0.369,0.64
				s-0.141,0.509-0.369,0.641l-10.031,5.791C35.958,45.19,35.83,45.224,35.702,45.224z"/>
		</g>
		
			<path fill="none" stroke="#737373" stroke-width="3.5" stroke-linecap="round" stroke-linejoin="round" stroke-miterlimit="10" d="
			M50.36,26.92H29.076c-2.318,0-4.197,1.879-4.197,4.196v15.111c0,2.317,1.879,4.197,4.197,4.197H50.36
			c2.317,0,4.196-1.88,4.196-4.197V31.116C54.557,28.799,52.678,26.92,50.36,26.92z"/>
	</g>
</g>
</svg>
