<?xml version="1.0" encoding="utf-8"?>
<!-- Generator: Adobe Illustrator 16.0.0, SVG Export Plug-In . SVG Version: 6.00 Build 0)  -->
<!DOCTYPE svg PUBLIC "-//W3C//DTD SVG 1.1//EN" "http://www.w3.org/Graphics/SVG/1.1/DTD/svg11.dtd">
<svg version="1.1" id="Layer_1" xmlns="http://www.w3.org/2000/svg" xmlns:xlink="http://www.w3.org/1999/xlink" x="0px" y="0px"
	 width="25.199px" height="27px" viewBox="19.316 -6 25.199 27" enable-background="new 19.316 -6 25.199 27" xml:space="preserve">
<g>
	<g>
		<path fill="#3B3B3B" d="M40.916-3.813V-5c0-0.55-0.45-1-1-1h-3.4c-0.55,0-1,0.45-1,1v1.188H40.916z"/>
		<path fill="#3B3B3B" d="M43.516-2.4h-1.078v0.775H21.219V-2.4h-0.902c-0.55,0-1,0.45-1,1V2c0,0.55,0.45,1,1,1h23.199
			c0.55,0,1-0.45,1-1v-3.4C44.516-1.95,44.065-2.4,43.516-2.4z"/>
		<path fill="#3B3B3B" d="M28.316-3.813V-5c0-0.55-0.45-1-1-1h-3.4c-0.55,0-1,0.45-1,1v1.188H28.316z"/>
	</g>
	<g>
		<path fill="#3B3B3B" d="M44.516,7.6c0-0.55-0.45-1-1-1H20.316c-0.55,0-1,0.45-1,1V20c0,0.55,0.45,1,1,1h23.199c0.55,0,1-0.45,1-1
			V7.6z"/>
	</g>
</g>
<g>
	<polygon fill="#3B3B3B" points="42.5,-2.4 40.916,-2.4 40.916,-3.875 35.516,-3.875 35.516,-2.4 28.316,-2.4 28.316,-3.875 
		22.916,-3.875 22.916,-2.4 20.688,-2.4 20.688,3 42.5,3 	"/>
</g>
</svg>
