<?xml version="1.0" encoding="utf-8"?>
<!-- Generator: Adobe Illustrator 16.0.0, SVG Export Plug-In . SVG Version: 6.00 Build 0)  -->
<!DOCTYPE svg PUBLIC "-//W3C//DTD SVG 1.1//EN" "http://www.w3.org/Graphics/SVG/1.1/DTD/svg11.dtd">
<svg version="1.1" id="Layer_1" xmlns="http://www.w3.org/2000/svg" xmlns:xlink="http://www.w3.org/1999/xlink" x="0px" y="0px"
	 width="25.199px" height="27px" viewBox="0 0 25.199 27" enable-background="new 0 0 25.199 27" xml:space="preserve">
<g>
	<g>
		<g>
			<path fill="#FCFDF8" d="M21.6,2.187V1c0-0.55-0.45-1-1-1h-3.4c-0.55,0-1,0.45-1,1v1.188L21.6,2.187L21.6,2.187z"/>
			<path fill="#FCFDF8" d="M24.199,3.6h-1.078v0.775H1.902V3.6H1c-0.549,0-1,0.45-1,1V8c0,0.55,0.451,1,1,1h23.199
				c0.551,0,1-0.45,1-1V4.6C25.199,4.05,24.748,3.6,24.199,3.6z"/>
			<path fill="#FCFDF8" d="M9,2.187V1c0-0.55-0.45-1-1-1H4.6c-0.55,0-1,0.45-1,1v1.188L9,2.187L9,2.187z"/>
		</g>
		<g>
			<path fill="#FCFDF8" d="M25.199,13.6c0-0.55-0.449-1-1-1H1c-0.551,0-1,0.45-1,1V26c0,0.55,0.449,1,1,1h23.199c0.549,0,1-0.45,1-1
				V13.6L25.199,13.6z"/>
		</g>
	</g>
	<g>
		<polygon fill="#FCFDF8" points="23.184,3.6 21.6,3.6 21.6,2.125 16.199,2.125 16.199,3.6 9,3.6 9,2.125 3.6,2.125 3.6,3.6 
			1.371,3.6 1.371,9 23.184,9 		"/>
	</g>
</g>
</svg>
