<?xml version="1.0" encoding="utf-8"?>
<!-- Generator: Adobe Illustrator 16.0.0, SVG Export Plug-In . SVG Version: 6.00 Build 0)  -->
<!DOCTYPE svg PUBLIC "-//W3C//DTD SVG 1.1//EN" "http://www.w3.org/Graphics/SVG/1.1/DTD/svg11.dtd">
<svg version="1.1" id="Layer_1" xmlns="http://www.w3.org/2000/svg" xmlns:xlink="http://www.w3.org/1999/xlink" x="0px" y="0px"
	 width="27px" height="27px" viewBox="-1.5 -1.5 27 27" enable-background="new -1.5 -1.5 27 27" xml:space="preserve">
<path fill="#3B3B3B" d="M21.45,3.9h-2.142l-1.35-1.35C17.177,1.768,15.805,1.2,14.7,1.2H9.3c-1.105,0-2.477,0.568-3.259,1.35
	L4.691,3.9H2.55C0.317,3.9-1.5,5.717-1.5,7.95v10.8c0,2.233,1.817,4.05,4.05,4.05h18.9c2.233,0,4.05-1.816,4.05-4.05V7.95
	C25.5,5.717,23.684,3.9,21.45,3.9z M12,17.4c-2.61,0-4.725-2.117-4.725-4.726C7.275,10.064,9.39,7.95,12,7.95
	c2.61,0,4.725,2.114,4.725,4.725C16.725,15.283,14.61,17.4,12,17.4z M20.1,11.053c-0.97,0-1.754-0.783-1.754-1.753
	c0-0.97,0.784-1.756,1.754-1.756c0.971,0,1.755,0.786,1.755,1.756C21.854,10.271,21.07,11.053,20.1,11.053z"/>
</svg>
