<?xml version="1.0" encoding="utf-8"?>
<!-- Generator: Adobe Illustrator 16.0.0, SVG Export Plug-In . SVG Version: 6.00 Build 0)  -->
<!DOCTYPE svg PUBLIC "-//W3C//DTD SVG 1.1//EN" "http://www.w3.org/Graphics/SVG/1.1/DTD/svg11.dtd">
<svg version="1.1" id="Layer_1" xmlns="http://www.w3.org/2000/svg" xmlns:xlink="http://www.w3.org/1999/xlink" x="0px" y="0px"
	 width="27px" height="27px" viewBox="0 0 27 27" enable-background="new 0 0 27 27" xml:space="preserve">
<path fill="#FCFDF8" d="M22.95,5.4h-2.142l-1.351-1.35C18.677,3.268,17.305,2.7,16.2,2.7h-5.4c-1.105,0-2.477,0.568-3.259,1.35
	L6.191,5.4H4.05C1.817,5.4,0,7.217,0,9.45v10.8c0,2.232,1.817,4.05,4.05,4.05h18.9c2.233,0,4.05-1.815,4.05-4.05V9.45
	C27,7.217,25.184,5.4,22.95,5.4z M13.5,18.9c-2.61,0-4.725-2.117-4.725-4.727c0-2.61,2.115-4.724,4.725-4.724
	c2.609,0,4.725,2.113,4.725,4.725C18.225,16.783,16.109,18.9,13.5,18.9z M21.6,12.553c-0.97,0-1.754-0.782-1.754-1.753
	c0-0.97,0.784-1.756,1.754-1.756c0.971,0,1.756,0.786,1.756,1.756C23.354,11.771,22.57,12.553,21.6,12.553z"/>
</svg>
