<?xml version="1.0" encoding="utf-8"?>
<!-- Generator: Adobe Illustrator 16.0.0, SVG Export Plug-In . SVG Version: 6.00 Build 0)  -->
<!DOCTYPE svg PUBLIC "-//W3C//DTD SVG 1.1//EN" "http://www.w3.org/Graphics/SVG/1.1/DTD/svg11.dtd">
<svg version="1.1" id="Layer_1" xmlns="http://www.w3.org/2000/svg" xmlns:xlink="http://www.w3.org/1999/xlink" x="0px" y="0px"
	 width="841.891px" height="595.281px" viewBox="0 0 841.891 595.281" enable-background="new 0 0 841.891 595.281"
	 xml:space="preserve">
<title></title>
<g id="Sofa">
	<path fill="#868686" d="M606.97,202.954v-65.109c0-55.582-45.059-100.64-100.64-100.64H335.559
		c-55.539,0.103-100.537,45.101-100.64,100.64v65.109c-42.414,7.068-74.41,37.204-74.41,74.409v186.025
		c0,10.274,8.329,18.603,18.603,18.603h18.603v59.9c0,10.273,8.329,18.603,18.603,18.603h74.41c10.273,0,18.603-8.329,18.603-18.603
		v-60.272h223.23v59.9c0,10.273,8.328,18.603,18.603,18.603h74.41c10.273,0,18.603-8.329,18.603-18.603v-59.9h18.603
		c10.273,0,18.603-8.328,18.603-18.603V276.991C681.381,240.717,649.384,210.022,606.97,202.954z M272.125,376.701v-30.322
		c0.102-16.602,13.534-30.034,30.136-30.136h237.368c16.602,0.102,30.035,13.534,30.137,30.136v30.322H272.125z M272.125,137.844
		c0-35.034,28.4-63.435,63.435-63.435h170.771c35.034,0,63.435,28.4,63.435,63.435v148.82c-9.307-4.854-19.641-7.405-30.137-7.441
		H302.26c-10.48-0.021-20.813,2.467-30.136,7.255V137.659V137.844z M272.125,522.917H234.92v-41.298h37.205V522.917z
		 M606.97,522.917h-37.205v-41.298h37.205V522.917z M644.176,444.414H197.715V276.991c0-16.556,15.813-31.252,37.205-37.204v154.4
		l0,0c0,10.274,8.329,18.603,18.603,18.603h334.846c10.273,0,18.603-8.328,18.603-18.603l0,0V241.833
		c21.393,5.395,37.205,20.091,37.205,37.205V444.414z"/>
</g>
</svg>
