<?xml version="1.0" encoding="utf-8"?>
<!-- Generator: Adobe Illustrator 16.0.0, SVG Export Plug-In . SVG Version: 6.00 Build 0)  -->
<!DOCTYPE svg PUBLIC "-//W3C//DTD SVG 1.1//EN" "http://www.w3.org/Graphics/SVG/1.1/DTD/svg11.dtd">
<svg version="1.1" id="Layer_1" xmlns="http://www.w3.org/2000/svg" xmlns:xlink="http://www.w3.org/1999/xlink" x="0px" y="0px"
	 width="22px" height="22px" viewBox="149.256 149.257 22 22" enable-background="new 149.256 149.257 22 22" xml:space="preserve">
<g>
	<path fill="#FF6F0F" d="M160.256,157.374c-3.552,0-6.432,2.816-6.432,6.372c0,4.912,6.45,7.519,6.432,7.512
		c-0.018,0.007,6.432-2.6,6.432-7.512C166.688,160.192,163.808,157.374,160.256,157.374z M160.256,166.324
		c-1.345,0-2.435-1.092-2.435-2.437c0.001-1.346,1.092-2.436,2.438-2.435c1.345,0.001,2.435,1.091,2.435,2.436
		c0.003,1.345-1.085,2.437-2.429,2.44c-0.003,0-0.006,0-0.009,0V166.324z"/>
	<path fill="#00A05B" d="M161.704,149.257c-1.5,0-2.546,1.049-2.71,2.288c-2.001-0.553-3.569,0.968-3.569,2.64
		c0,1.28,0.881,2.314,2.053,2.65c0.946,0.271,2.649,0.069,2.649,0.069c-0.009-0.414,0.372-0.868,0.96-1.282
		c1.673-1.175,2.979-1.73,3.181-3.333C164.478,150.612,163.233,149.257,161.704,149.257z"/>
</g>
</svg>
