<?xml version="1.0" encoding="utf-8"?>
<!-- Generator: Adobe Illustrator 16.0.0, SVG Export Plug-In . SVG Version: 6.00 Build 0)  -->
<!DOCTYPE svg PUBLIC "-//W3C//DTD SVG 1.1//EN" "http://www.w3.org/Graphics/SVG/1.1/DTD/svg11.dtd">
<svg version="1.1" id="Layer_1" xmlns="http://www.w3.org/2000/svg" xmlns:xlink="http://www.w3.org/1999/xlink" x="0px" y="0px"
	 width="320.513px" height="320.514px" viewBox="-66.554 -0.002 320.513 320.514"
	 enable-background="new -66.554 -0.002 320.513 320.514" xml:space="preserve">
<g>
	<path fill="#FF6F0F" d="M93.703,118.255C41.959,118.255,0,159.28,0,211.075C0,282.64,93.967,320.61,93.703,320.509
		c-0.254,0.102,93.702-37.867,93.702-109.434C187.405,159.311,145.446,118.255,93.703,118.255z M93.703,248.659
		c-19.597-0.012-35.475-15.906-35.464-35.504c0.011-19.598,15.907-35.475,35.504-35.465c19.59,0.012,35.464,15.896,35.464,35.485
		c0.045,19.586-15.796,35.499-35.382,35.544c-0.041,0-0.082,0-0.122,0V248.659z"/>
	<path fill="#00A05B" d="M114.794,0C92.93,0,77.696,15.286,75.31,33.332C46.15,25.283,23.313,47.44,23.313,71.799
		c0,18.646,12.82,33.718,29.901,38.61c13.784,3.938,38.6,1.005,38.6,1.005c-0.132-6.029,5.42-12.647,13.986-18.676
		c24.36-17.122,43.4-25.201,46.334-48.556C155.21,19.742,137.073,0,114.794,0z"/>
</g>
</svg>
