<?xml version="1.0" encoding="utf-8"?>
<!-- Generator: Adobe Illustrator 16.0.0, SVG Export Plug-In . SVG Version: 6.00 Build 0)  -->
<!DOCTYPE svg PUBLIC "-//W3C//DTD SVG 1.1//EN" "http://www.w3.org/Graphics/SVG/1.1/DTD/svg11.dtd">
<svg version="1.1" id="Layer_1" xmlns="http://www.w3.org/2000/svg" xmlns:xlink="http://www.w3.org/1999/xlink" x="0px" y="0px"
	 width="24px" height="24px" viewBox="0 0 24 24" enable-background="new 0 0 24 24" xml:space="preserve">
<path fill="#FFFFFF" d="M9,13c-0.283,0-0.521-0.096-0.712-0.287C8.096,12.521,8,12.283,8,12s0.096-0.521,0.288-0.712
	C8.479,11.096,8.717,11,9,11s0.521,0.096,0.712,0.288C9.904,11.479,10,11.717,10,12s-0.096,0.521-0.288,0.713
	C9.521,12.904,9.283,13,9,13z M15,13c-0.283,0-0.521-0.096-0.713-0.287S14,12.283,14,12s0.096-0.521,0.287-0.712
	C14.479,11.096,14.717,11,15,11s0.521,0.096,0.713,0.288C15.904,11.479,16,11.717,16,12s-0.096,0.521-0.287,0.713S15.283,13,15,13z
	 M3,21v-2h1V5c0-0.55,0.196-1.021,0.587-1.413S5.45,3,6,3h12c0.55,0,1.021,0.196,1.412,0.587C19.805,3.979,20,4.45,20,5v14h1v2H3z
	 M6,19h5V5H6V19z M13,19h5V5h-5V19z"/>
</svg>
