<?xml version="1.0" encoding="utf-8"?>
<!-- Generator: Adobe Illustrator 16.0.0, SVG Export Plug-In . SVG Version: 6.00 Build 0)  -->
<!DOCTYPE svg PUBLIC "-//W3C//DTD SVG 1.1//EN" "http://www.w3.org/Graphics/SVG/1.1/DTD/svg11.dtd">
<svg version="1.1" id="Layer_1" xmlns="http://www.w3.org/2000/svg" xmlns:xlink="http://www.w3.org/1999/xlink" x="0px" y="0px"
	 width="27px" height="21.077px" viewBox="-66.343 7.756 27 21.077" enable-background="new -66.343 7.756 27 21.077"
	 xml:space="preserve">
<path fill="none" d="M0,0h48v48H0V0z"/>
<g>
	<g>
		<path fill="#3B3B3B" d="M-49.856,25.536c0,0.484-0.396,0.88-0.879,0.88h-14.728c-0.484,0-0.879-0.396-0.879-0.88v-6.891
			c0-0.484,0.396-0.879,0.879-0.879h14.728c0.484,0,0.879,0.396,0.879,0.879V25.536z"/>
	</g>
	<g>
		<path fill="#3B3B3B" d="M-39.343,28.226c0,0.483-0.367,0.729-0.814,0.545l-7.102-2.923c-0.447-0.184-0.813-0.73-0.813-1.214
			v-5.087c0-0.484,0.366-1.031,0.813-1.215l7.102-2.922c0.447-0.184,0.814,0.061,0.814,0.545V28.226z"/>
	</g>
	<g>
		<path fill="#3B3B3B" d="M-61.727,16.679c-2.459,0-4.461-2.001-4.461-4.462s2-4.461,4.461-4.461s4.462,2,4.462,4.461
			S-59.267,16.679-61.727,16.679z M-61.727,10.24c-1.091,0-1.979,0.887-1.979,1.979s0.888,1.979,1.979,1.979
			c1.091,0,1.979-0.888,1.979-1.979S-60.636,10.24-61.727,10.24z"/>
	</g>
	<g>
		<path fill="#3B3B3B" d="M-53.076,16.673c-1.819,0-3.298-1.48-3.298-3.298s1.479-3.297,3.298-3.297
			c1.818,0,3.297,1.479,3.297,3.297S-51.258,16.673-53.076,16.673z M-53.076,12.214c-0.64,0-1.162,0.521-1.162,1.161
			c0,0.641,0.521,1.162,1.162,1.162c0.64,0,1.161-0.521,1.161-1.162C-51.915,12.734-52.437,12.214-53.076,12.214z"/>
	</g>
</g>
</svg>
