<?xml version="1.0" encoding="utf-8"?>
<!-- Generator: Adobe Illustrator 16.0.0, SVG Export Plug-In . SVG Version: 6.00 Build 0)  -->
<!DOCTYPE svg PUBLIC "-//W3C//DTD SVG 1.1//EN" "http://www.w3.org/Graphics/SVG/1.1/DTD/svg11.dtd">
<svg version="1.1" id="Layer_1" xmlns="http://www.w3.org/2000/svg" xmlns:xlink="http://www.w3.org/1999/xlink" x="0px" y="0px"
	 width="27px" height="21.078px" viewBox="0 0 27 21.078" enable-background="new 0 0 27 21.078" xml:space="preserve">
<g>
	<g>
		<path fill="#FCFDF8" d="M16.486,17.782c0,0.483-0.396,0.879-0.879,0.879H0.879C0.396,18.661,0,18.265,0,17.782V10.89
			c0-0.483,0.396-0.879,0.879-0.879h14.728c0.484,0,0.879,0.396,0.879,0.879V17.782L16.486,17.782z"/>
	</g>
	<g>
		<path fill="#FCFDF8" d="M27,20.471c0,0.482-0.367,0.729-0.814,0.545l-7.102-2.923c-0.447-0.185-0.813-0.729-0.813-1.214v-5.088
			c0-0.483,0.366-1.03,0.813-1.215l7.102-2.922C26.633,7.471,27,7.716,27,8.2V20.471z"/>
	</g>
	<g>
		<path fill="#FCFDF8" d="M4.615,8.924c-2.459,0-4.461-2.002-4.461-4.463c0-2.46,2-4.46,4.461-4.46s4.462,2,4.462,4.46
			C9.077,6.922,7.075,8.924,4.615,8.924z M4.615,2.485c-1.091,0-1.979,0.886-1.979,1.978c0,1.093,0.888,1.98,1.979,1.98
			s1.979-0.889,1.979-1.98C6.594,3.374,5.706,2.485,4.615,2.485z"/>
	</g>
	<g>
		<path fill="#FCFDF8" d="M13.266,8.918c-1.819,0-3.298-1.48-3.298-3.299c0-1.817,1.479-3.296,3.298-3.296
			c1.818,0,3.297,1.479,3.297,3.296C16.563,7.438,15.084,8.918,13.266,8.918z M13.266,4.459c-0.64,0-1.162,0.521-1.162,1.16
			c0,0.642,0.521,1.162,1.162,1.162c0.64,0,1.162-0.521,1.162-1.162C14.428,4.979,13.905,4.459,13.266,4.459z"/>
	</g>
</g>
</svg>
