<?xml version="1.0" encoding="utf-8"?>
<!-- Generator: Adobe Illustrator 16.0.0, SVG Export Plug-In . SVG Version: 6.00 Build 0)  -->
<!DOCTYPE svg PUBLIC "-//W3C//DTD SVG 1.1//EN" "http://www.w3.org/Graphics/SVG/1.1/DTD/svg11.dtd">
<svg version="1.1" id="Layer_1" xmlns="http://www.w3.org/2000/svg" xmlns:xlink="http://www.w3.org/1999/xlink" x="0px" y="0px"
	 width="52.188px" height="40.736px" viewBox="-78.938 -1.854 52.188 40.736" enable-background="new -78.938 -1.854 52.188 40.736"
	 xml:space="preserve">
<path fill="none" d="M0,0h48v48H0V0z"/>
<g>
	<g>
		<path fill="#3B3B3B" d="M-48.031,29.962c0,0.779-0.638,1.417-1.417,1.417h-23.728c-0.78,0-1.417-0.638-1.417-1.417V18.859
			c0-0.78,0.638-1.417,1.417-1.417h23.728c0.78,0,1.417,0.638,1.417,1.417V29.962z"/>
	</g>
	<g>
		<path fill="#3B3B3B" d="M-31.094,34.296c0,0.779-0.59,1.174-1.311,0.878l-11.441-4.709c-0.721-0.296-1.311-1.177-1.311-1.956
			v-8.196c0-0.78,0.59-1.66,1.311-1.957l11.441-4.708c0.721-0.297,1.311,0.098,1.311,0.878V34.296z"/>
	</g>
	<g>
		<path fill="#3B3B3B" d="M-67.156,15.692c-3.963,0-7.188-3.224-7.188-7.188s3.224-7.188,7.188-7.188s7.188,3.224,7.188,7.188
			S-63.193,15.692-67.156,15.692z M-67.156,5.317c-1.758,0-3.188,1.43-3.188,3.188s1.43,3.188,3.188,3.188s3.188-1.43,3.188-3.188
			S-65.398,5.317-67.156,5.317z"/>
	</g>
	<g>
		<path fill="#3B3B3B" d="M-53.219,15.681c-2.929,0-5.313-2.383-5.313-5.313s2.383-5.313,5.313-5.313s5.313,2.383,5.313,5.313
			S-50.29,15.681-53.219,15.681z M-53.219,8.498c-1.031,0-1.871,0.839-1.871,1.871s0.839,1.871,1.871,1.871s1.871-0.839,1.871-1.871
			S-52.188,8.498-53.219,8.498z"/>
	</g>
</g>
</svg>
