<?xml version="1.0" encoding="utf-8"?>
<!-- Generator: Adobe Illustrator 16.0.0, SVG Export Plug-In . SVG Version: 6.00 Build 0)  -->
<!DOCTYPE svg PUBLIC "-//W3C//DTD SVG 1.1//EN" "http://www.w3.org/Graphics/SVG/1.1/DTD/svg11.dtd">
<svg version="1.1" id="Layer_1" xmlns="http://www.w3.org/2000/svg" xmlns:xlink="http://www.w3.org/1999/xlink" x="0px" y="0px"
	 width="24px" height="24px" viewBox="0 0 24 24" enable-background="new 0 0 24 24" xml:space="preserve">
<path fill="#FFFFFF" d="M11,17h2v-6h-2V17z M12,9c0.283,0,0.521-0.096,0.713-0.288C12.904,8.521,13,8.283,13,8
	s-0.096-0.521-0.287-0.712C12.521,7.096,12.283,7,12,7s-0.521,0.096-0.712,0.288C11.096,7.479,11,7.717,11,8
	s0.096,0.521,0.288,0.712C11.479,8.904,11.717,9,12,9z M12,22c-1.383,0-2.683-0.263-3.9-0.787c-1.217-0.525-2.275-1.238-3.175-2.138
	c-0.9-0.9-1.612-1.958-2.137-3.175S2,13.383,2,12c0-1.383,0.263-2.684,0.788-3.9c0.525-1.217,1.237-2.275,2.137-3.175
	c0.9-0.9,1.958-1.612,3.175-2.137S10.617,2,12,2c1.383,0,2.684,0.263,3.9,0.788s2.274,1.237,3.175,2.137
	c0.899,0.9,1.612,1.958,2.138,3.175C21.737,9.316,22,10.617,22,12c0,1.383-0.263,2.684-0.787,3.9
	c-0.525,1.217-1.238,2.274-2.138,3.175c-0.9,0.899-1.958,1.612-3.175,2.138C14.684,21.737,13.383,22,12,22z M12,20
	c2.233,0,4.125-0.775,5.675-2.325S20,14.233,20,12s-0.775-4.125-2.325-5.675C16.125,4.775,14.233,4,12,4S7.875,4.775,6.325,6.325
	C4.775,7.875,4,9.767,4,12s0.775,4.125,2.325,5.675C7.875,19.225,9.767,20,12,20z"/>
</svg>
