<?xml version="1.0" encoding="utf-8"?>
<!-- Generator: Adobe Illustrator 16.0.0, SVG Export Plug-In . SVG Version: 6.00 Build 0)  -->
<!DOCTYPE svg PUBLIC "-//W3C//DTD SVG 1.1//EN" "http://www.w3.org/Graphics/SVG/1.1/DTD/svg11.dtd">
<svg version="1.1" id="Layer_1" xmlns="http://www.w3.org/2000/svg" xmlns:xlink="http://www.w3.org/1999/xlink" x="0px" y="0px"
	 width="22px" height="22px" viewBox="286.641 286.641 22 22" enable-background="new 286.641 286.641 22 22" xml:space="preserve">
<g>
	
		<linearGradient id="SVGID_1_" gradientUnits="userSpaceOnUse" x1="564.5039" y1="-107.4102" x2="575.4626" y2="-88.335" gradientTransform="matrix(1 0 0 -1 -272.6602 200.3213)">
		<stop  offset="0" style="stop-color:#FEC053"/>
		<stop  offset="0.327" style="stop-color:#F2203E"/>
		<stop  offset="0.648" style="stop-color:#B729A8"/>
		<stop  offset="1" style="stop-color:#5342D6"/>
	</linearGradient>
	<path fill="url(#SVGID_1_)" d="M297.641,286.641c2.988,0,3.362,0.01,4.534,0.065s1.969,0.239,2.67,0.511
		c0.727,0.28,1.339,0.658,1.95,1.269c0.56,0.55,0.991,1.215,1.269,1.949c0.271,0.701,0.455,1.499,0.511,2.671
		c0.052,1.173,0.066,1.545,0.066,4.534c0,2.988-0.012,3.362-0.066,4.534c-0.056,1.172-0.239,1.969-0.511,2.67
		c-0.275,0.735-0.709,1.4-1.269,1.95c-0.551,0.56-1.215,0.991-1.95,1.269c-0.7,0.271-1.498,0.455-2.67,0.511
		c-1.172,0.052-1.546,0.066-4.534,0.066c-2.989,0-3.361-0.012-4.534-0.066c-1.172-0.056-1.969-0.239-2.671-0.511
		c-0.734-0.275-1.399-0.709-1.949-1.269c-0.56-0.551-0.992-1.215-1.269-1.95c-0.272-0.7-0.456-1.498-0.511-2.67
		c-0.052-1.172-0.065-1.546-0.065-4.534c0-2.989,0.01-3.361,0.065-4.534s0.239-1.969,0.511-2.671c0.275-0.734,0.708-1.4,1.269-1.949
		c0.55-0.56,1.215-0.992,1.949-1.269c0.702-0.272,1.498-0.456,2.671-0.511C294.279,286.655,294.652,286.641,297.641,286.641z
		 M297.641,292.141c-3.038,0-5.5,2.462-5.5,5.5c0,3.037,2.462,5.5,5.5,5.5c3.037,0,5.5-2.463,5.5-5.5
		C303.141,294.603,300.678,292.141,297.641,292.141z M304.79,291.866c0-0.759-0.615-1.375-1.375-1.375
		c-0.759,0-1.374,0.616-1.374,1.375s0.615,1.375,1.374,1.375C304.175,293.241,304.79,292.625,304.79,291.866z M297.641,294.341
		c1.822,0,3.3,1.477,3.3,3.3c0,1.822-1.478,3.3-3.3,3.3c-1.823,0-3.3-1.478-3.3-3.3
		C294.341,295.818,295.818,294.341,297.641,294.341z"/>
</g>
</svg>
