<?xml version="1.0" encoding="utf-8"?>
<!-- Generator: Adobe Illustrator 16.0.0, SVG Export Plug-In . SVG Version: 6.00 Build 0)  -->
<!DOCTYPE svg PUBLIC "-//W3C//DTD SVG 1.1//EN" "http://www.w3.org/Graphics/SVG/1.1/DTD/svg11.dtd">
<svg version="1.1" id="Layer_1" xmlns="http://www.w3.org/2000/svg" xmlns:xlink="http://www.w3.org/1999/xlink" x="0px" y="0px"
	 width="595.281px" height="595.281px" viewBox="0 0 595.281 595.281" enable-background="new 0 0 595.281 595.281"
	 xml:space="preserve">
<g>
	<path fill="none" d="M0,0h595.281v595.281H0V0z"/>
	<linearGradient id="SVGID_1_" gradientUnits="userSpaceOnUse" x1="166.9246" y1="525.1677" x2="414.0377" y2="95.0315">
		<stop  offset="0" style="stop-color:#FEC053"/>
		<stop  offset="0.327" style="stop-color:#F2203E"/>
		<stop  offset="0.648" style="stop-color:#B729A8"/>
		<stop  offset="1" style="stop-color:#5342D6"/>
	</linearGradient>
	<path fill="url(#SVGID_1_)" d="M297.64,49.607c67.391,0,75.799,0.248,102.239,1.487c26.416,1.24,44.398,5.383,60.223,11.534
		c16.37,6.3,30.161,14.832,43.951,28.598c12.612,12.399,22.372,27.397,28.599,43.952c6.126,15.8,10.293,33.807,11.533,60.223
		c1.166,26.44,1.488,34.849,1.488,102.239s-0.248,75.799-1.488,102.239c-1.24,26.416-5.407,44.398-11.533,60.223
		c-6.209,16.563-15.971,31.565-28.599,43.951c-12.402,12.608-27.399,22.367-43.951,28.599c-15.8,6.126-33.807,10.293-60.223,11.533
		c-26.44,1.166-34.849,1.488-102.239,1.488s-75.799-0.248-102.239-1.488c-26.416-1.24-44.398-5.407-60.223-11.533
		c-16.561-6.214-31.562-15.975-43.952-28.599c-12.614-12.396-22.374-27.396-28.598-43.951c-6.151-15.8-10.294-33.807-11.534-60.223
		c-1.165-26.44-1.487-34.849-1.487-102.239s0.247-75.799,1.487-102.239s5.383-44.398,11.534-60.223
		c6.206-16.564,15.969-31.567,28.598-43.952c12.394-12.619,27.394-22.379,43.952-28.598c15.824-6.151,33.782-10.294,60.223-11.534
		C221.842,49.929,230.25,49.607,297.64,49.607z M297.64,173.624c-68.493,0-124.017,55.523-124.017,124.017
		c0,68.492,55.523,124.017,124.017,124.017c68.492,0,124.017-55.524,124.017-124.017
		C421.657,229.147,366.133,173.624,297.64,173.624z M458.862,167.423c0-17.123-13.881-31.004-31.004-31.004
		s-31.005,13.881-31.005,31.004s13.882,31.004,31.005,31.004S458.862,184.546,458.862,167.423z M297.64,223.23
		c41.096,0,74.41,33.314,74.41,74.41s-33.314,74.41-74.41,74.41s-74.41-33.314-74.41-74.41S256.545,223.23,297.64,223.23z"/>
</g>
</svg>
