<?xml version="1.0" encoding="utf-8"?>
<!-- Generator: Adobe Illustrator 16.0.0, SVG Export Plug-In . SVG Version: 6.00 Build 0)  -->
<!DOCTYPE svg PUBLIC "-//W3C//DTD SVG 1.1//EN" "http://www.w3.org/Graphics/SVG/1.1/DTD/svg11.dtd">
<svg version="1.1" id="Layer_1" xmlns="http://www.w3.org/2000/svg" xmlns:xlink="http://www.w3.org/1999/xlink" x="0px" y="0px"
	 width="228.852px" height="242.034px" viewBox="0 0 228.852 242.034" enable-background="new 0 0 228.852 242.034"
	 xml:space="preserve">
<g>
	<circle fill-rule="evenodd" clip-rule="evenodd" fill="#FFEB00" cx="355.917" cy="-1284.619" r="194.173"/>
	<g>
		<g>
			<path fill="#3C1E1E" d="M357.748-1185.482c-8.217,0.07-16.405-0.323-24.547-1.48c-1.238-0.177-2.213,0.062-3.264,0.798
				c-16.161,11.343-32.309,22.707-48.996,33.272c-2.025,1.284-4.144,2.427-6.23,3.613c-0.738,0.418-1.537,0.699-2.391,0.817
				c-2.663,0.359-4.231-1.213-3.666-3.862c0.988-4.649,2.379-9.2,3.683-13.771c3.29-11.54,6.579-23.08,9.905-34.612
				c0.293-1.011,0.191-1.492-0.854-2.023c-15.74-7.975-29.621-18.358-40.95-31.972c-11.194-13.45-18.757-28.657-21.448-46.043
				c-3.076-19.867,0.43-38.649,10.018-56.286c9.386-17.265,22.918-30.64,39.267-41.273c17.451-11.347,36.604-18.403,57.028-22.089
				c15.214-2.745,30.55-3.411,45.941-2.012c28.969,2.63,55.692,11.552,79.262,28.93c15.647,11.532,28.228,25.752,35.883,43.781
				c12.251,28.865,9.684,56.78-6.61,83.386c-10.45,17.063-25.105,29.854-42.313,39.821c-16.437,9.521-34.126,15.535-52.83,18.662
				C375.732-1186.335,366.774-1185.552,357.748-1185.482z"/>
			<path fill="#FFEB00" d="M421.847-1301.772c0.301-0.424,0.548-0.901,0.91-1.267c6.793-6.818,13.6-13.625,20.409-20.426
				c2.556-2.553,5.705-2.938,8.75-1.104c3.06,1.845,4.585,5.43,3.663,8.596c-0.356,1.216-1.106,2.16-1.985,3.037
				c-5.576,5.565-11.127,11.158-16.737,16.692c-0.781,0.767-0.742,1.21-0.112,2.037c6.223,8.181,12.411,16.386,18.582,24.606
				c2.7,3.596,2.324,8.183-0.822,10.981c-3.537,3.144-8.782,2.638-11.726-1.225c-5.549-7.275-11.038-14.591-16.55-21.892
				c-0.143-0.188-0.256-0.402-0.424-0.564c-0.646-0.621-0.826-1.846-1.837-1.908c-0.781-0.051-2.596,2.775-2.596,3.7
				c-0.006,5.472,0.039,10.944-0.028,16.417c-0.051,3.817-2.742,6.832-6.568,7.582c-3.457,0.674-7.078-1.244-8.584-4.551
				c-0.495-1.087-0.726-2.228-0.726-3.427c0.003-18.071-0.011-36.141,0.012-54.212c0.005-4.54,3.506-8.063,7.921-8.09
				c4.395-0.028,7.917,3.48,7.959,8.031c0.048,5.189,0.012,10.38,0.012,15.569c0,0.365,0,0.728,0,1.093
				C421.529-1301.991,421.687-1301.882,421.847-1301.772z"/>
			<path fill="#FFEB00" d="M326.746-1270.228c-3.677,0-7.359,0.028-11.038-0.02c-0.837-0.011-1.235,0.233-1.524,1.04
				c-0.936,2.612-1.97,5.191-2.958,7.784c-1.526,3.989-4.315,5.599-8.62,4.962c-5.57-0.821-7.491-3.658-6.309-9.366
				c0.738-3.571,2.289-6.866,3.568-10.254c5.367-14.214,10.764-28.421,16.175-42.619c1.588-4.166,4.506-6.964,8.925-7.846
				c5-1,10.265,2.228,12.276,7.43c3.003,7.765,5.931,15.563,8.888,23.348c3.33,8.748,6.67,17.495,9.979,26.252
				c0.924,2.441,1.508,4.958,1.264,7.604c-0.208,2.27-1.298,3.882-3.492,4.683c-1.612,0.587-3.261,0.941-4.98,0.832
				c-3.174-0.2-5.557-1.402-6.596-4.728c-0.841-2.691-2.026-5.27-2.976-7.928c-0.312-0.876-0.69-1.222-1.682-1.203
				C334.014-1270.183,330.381-1270.228,326.746-1270.228z"/>
			<path fill="#FFEB00" d="M271.635-1287.026c0-7.546-0.025-15.092,0.028-22.637c0.008-1.188-0.208-1.627-1.522-1.587
				c-3.534,0.104-7.074,0.053-10.611,0.03c-4.632-0.028-8.051-3.281-8.084-7.658c-0.037-4.453,3.362-7.897,8.012-7.911
				c13.439-0.042,26.881-0.04,40.32,0c4.236,0.011,7.568,2.972,7.995,6.916c0.421,3.882-2.003,7.386-5.813,8.428
				c-0.788,0.216-1.584,0.225-2.385,0.225c-3.536,0.009-7.073,0.056-10.607-0.025c-1.16-0.026-1.391,0.362-1.388,1.435
				c0.03,15.046,0.022,30.089,0.017,45.133c0,4.018-1.992,6.914-5.47,8.007c-5.301,1.666-10.444-2.015-10.479-7.577
				C271.602-1271.84,271.635-1279.434,271.635-1287.026z"/>
			<path fill="#FFEB00" d="M361.578-1291.895c0-8.961-0.023-17.923,0.008-26.884c0.014-4.205,3.017-7.422,7.314-7.964
				c3.83-0.48,7.611,2.14,8.659,5.98c0.264,0.975,0.235,1.961,0.235,2.947c0.006,14.763,0.02,29.525-0.028,44.29
				c-0.002,1.262,0.323,1.568,1.565,1.551c5.188-0.073,10.377-0.073,15.563-0.011c4.043,0.045,7.293,3.098,7.456,6.854
				c0.175,3.967-2.946,7.563-6.953,7.61c-8.961,0.109-17.923,0.107-26.884,0c-3.889-0.048-6.919-3.404-6.931-7.349
				C361.561-1273.879,361.574-1282.886,361.578-1291.895z"/>
			<path fill="#3C1E1E" d="M326.729-1306.907c2.719,7.717,5.304,15.06,7.947,22.566c-3.453,0-6.745,0-10.034,0
				c-1.558,0-3.116-0.054-4.67,0.02c-1.012,0.048-1.16-0.21-0.823-1.155c2.058-5.708,4.06-11.439,6.077-17.161
				C325.682-1303.921,326.131-1305.208,326.729-1306.907z"/>
		</g>
	</g>
</g>
<g>
	<path fill="#FFEB00" d="M-378.573-1169.916c0,47.716-38.46,86.396-85.905,86.396h-214.296c-47.444,0-85.902-38.681-85.902-86.396
		v-215.522c0-47.717,38.458-86.396,85.902-86.396h214.296c47.445,0,85.905,38.68,85.905,86.396V-1169.916z"/>
	<path fill="#3C1E1E" d="M-572.839-1398.735c-76.697,0-138.871,49.149-138.871,109.789c0,39.461,26.339,74.054,65.884,93.406
		c-2.906,10.84-10.522,39.281-12.043,45.364c-1.885,7.551,2.757,7.451,5.811,5.431c2.391-1.595,38.051-25.849,53.441-36.315
		c8.355,1.241,16.97,1.896,25.778,1.896c76.701,0,138.873-49.146,138.873-109.782
		C-433.967-1349.586-496.139-1398.735-572.839-1398.735"/>
	<path fill="#FFEB00" d="M-669.72-1309.16h14.295c0,0,0.091,39.261,0.011,48.409c0.02,6.676,14.869,6.77,14.849,0.1l0.065-47.997
		c0,0,4.788,0.033,14.224,0.039c8.885,0,8.893-13.971,0.009-13.981c-10.013,0-43.476-0.276-43.476-0.276
		C-678.129-1322.854-678.101-1309.16-669.72-1309.16"/>
	<path fill="#FFEB00" d="M-601.304-1306.619l7.955,24.921h-16.581L-601.304-1306.619z M-610.22-1318.294
		c-3.517,7.747-16.222,44.324-20.436,54.03c-3.053,7.015,10.096,12.731,13.146,5.722l2.86-10.003h26.162c0,0-0.904,0.407,2.57,9.578
		c2.814,7.415,16.393,2.273,13.578-5.147c-4.014-10.605-17.908-48.772-20.444-54.18c-1.163-2.5-5.356-4.291-9.408-4.291
		C-605.552-1322.584-608.827-1321.359-610.22-1318.294"/>
	<path fill="#FFEB00" d="M-567.332-1316.005c0.025,12.434,0.071,52.5,0.071,52.5s-1.148,7.962,5.681,7.962
		s21.977-0.072,28.698-0.072c6.715,0,6.681-14.292-0.034-14.292c-6.724,0-18.983-0.07-18.983-0.07s0.06-37.063,0.042-46.062
		c-0.017-4.353-3.872-6.534-7.733-6.534C-563.469-1322.573-567.337-1320.381-567.332-1316.005"/>
	<path fill="#FFEB00" d="M-524.376-1317.983c0.147,5.453-0.174,54.75-0.171,58.404c0.002,5.764,14.679,5.752,14.676-0.012
		c-0.003-6.692,0-19.395,0-19.395l4.31-3.456l18.844,25.712c3.81,5.025,15.796-4.056,11.993-9.076l-20.013-26.356
		c0,0,13.581-14.69,18.935-20.013c3.125-3.1-6.544-12.847-9.672-9.734c-3.025,3.001-24.303,24.3-24.303,24.3
		s0.191-13.374-0.006-20.769c-0.077-2.806-3.52-4.164-7.042-4.164C-520.595-1322.542-524.453-1320.987-524.376-1317.983"/>
</g>
<g>
	<path fill="#3C1E1E" d="M777.955-1451.918c-104.741,0-189.646,67.117-189.646,149.923c0,53.893,35.974,101.132,89.972,127.562
		c-3.97,14.801-14.366,53.644-16.447,61.946c-2.573,10.312,3.77,10.181,7.938,7.418c3.267-2.177,51.963-35.302,72.979-49.594
		c11.412,1.694,23.177,2.588,35.206,2.588c104.734,0,189.644-67.118,189.644-149.92
		C967.599-1384.801,882.689-1451.918,777.955-1451.918"/>
	<path fill="#FFEB00" d="M645.649-1329.596h19.521c0,0,0.122,53.618,0.02,66.107c0.025,9.119,20.306,9.245,20.279,0.135
		l0.085-65.543c0,0,6.539,0.045,19.425,0.053c12.136,0,12.145-19.081,0.014-19.092c-13.672,0-59.369-0.375-59.369-0.375
		C634.17-1348.294,634.206-1329.596,645.649-1329.596"/>
	<path fill="#FFEB00" d="M739.078-1326.125l10.861,34.033H727.3L739.078-1326.125z M726.904-1342.068
		c-4.802,10.58-22.149,60.532-27.91,73.785c-4.168,9.578,13.791,17.382,17.957,7.811l3.909-13.661h35.718
		c0,0-1.231,0.56,3.514,13.081c3.844,10.125,22.389,3.105,18.543-7.028c-5.484-14.484-24.457-66.604-27.917-73.988
		c-1.592-3.417-7.317-5.859-12.853-5.859C733.279-1347.927,728.81-1346.254,726.904-1342.068"/>
	<path fill="#FFEB00" d="M785.473-1338.942c0.033,16.977,0.095,71.693,0.095,71.693s-1.565,10.874,7.756,10.874
		c9.326,0,30.018-0.1,39.192-0.1c9.169,0,9.123-19.518-0.049-19.518c-9.18,0-25.917-0.095-25.917-0.095s0.077-50.614,0.052-62.904
		c-0.017-5.945-5.282-8.917-10.557-8.917C790.752-1347.909,785.464-1344.917,785.473-1338.942"/>
	<path fill="#FFEB00" d="M844.136-1341.643c0.201,7.444-0.238,74.765-0.233,79.754c0.002,7.873,20.044,7.854,20.037-0.014
		c-0.002-9.139,0-26.487,0-26.487l5.889-4.717l25.732,35.11c5.203,6.861,21.571-5.537,16.376-12.396l-27.33-35.993
		c0,0,18.548-20.058,25.858-27.328c4.27-4.233-8.939-17.542-13.204-13.295c-4.134,4.098-33.189,33.188-33.189,33.188
		s0.259-18.268-0.011-28.362c-0.101-3.833-4.805-5.689-9.616-5.689C849.296-1347.871,844.03-1345.745,844.136-1341.643"/>
</g>
<g>
	<path fill="#3C1E1E" d="M1205.773-1451.918c-104.741,0-189.647,67.117-189.647,149.923c0,53.893,35.974,101.132,89.972,127.562
		c-3.97,14.801-14.369,53.644-16.447,61.946c-2.573,10.312,3.768,10.181,7.938,7.418c3.267-2.177,51.963-35.302,72.977-49.594
		c11.412,1.694,23.177,2.588,35.209,2.588c104.734,0,189.643-67.118,189.643-149.92
		C1395.416-1384.801,1310.508-1451.918,1205.773-1451.918"/>
	<path fill="#FFFFFF" d="M1073.469-1329.596h19.52c0,0,0.122,53.618,0.018,66.107c0.027,9.119,20.308,9.245,20.281,0.135
		l0.086-65.543c0,0,6.54,0.045,19.424,0.053c12.137,0,12.146-19.081,0.014-19.092c-13.672,0-59.369-0.375-59.369-0.375
		C1061.988-1348.294,1062.024-1329.596,1073.469-1329.596"/>
	<path fill="#FFFFFF" d="M1166.897-1326.125l10.86,34.033h-22.643L1166.897-1326.125z M1154.723-1342.068
		c-4.802,10.58-22.15,60.532-27.91,73.785c-4.168,9.578,13.791,17.382,17.956,7.811l3.907-13.661h35.72c0,0-1.23,0.56,3.514,13.081
		c3.842,10.125,22.387,3.105,18.543-7.028c-5.487-14.484-24.456-66.604-27.916-73.988c-1.595-3.417-7.317-5.859-12.854-5.859
		C1161.097-1347.927,1156.627-1346.254,1154.723-1342.068"/>
	<path fill="#FFFFFF" d="M1213.29-1338.942c0.034,16.977,0.097,71.693,0.097,71.693s-1.567,10.874,7.752,10.874
		c9.326,0,30.02-0.1,39.195-0.1c9.168,0,9.123-19.518-0.048-19.518c-9.184,0-25.917-0.095-25.917-0.095s0.076-50.614,0.05-62.904
		c-0.017-5.945-5.284-8.917-10.557-8.917C1218.569-1347.909,1213.281-1344.917,1213.29-1338.942"/>
	<path fill="#FFFFFF" d="M1271.953-1341.643c0.202,7.444-0.238,74.765-0.235,79.754c0.006,7.873,20.046,7.854,20.041-0.014
		c-0.004-9.139,0-26.487,0-26.487l5.887-4.717l25.73,35.11c5.205,6.861,21.573-5.537,16.376-12.396l-27.328-35.993
		c0,0,18.549-20.058,25.858-27.328c4.27-4.233-8.938-17.542-13.21-13.295c-4.13,4.098-33.183,33.188-33.183,33.188
		s0.259-18.268-0.012-28.362c-0.103-3.833-4.809-5.689-9.615-5.689C1277.113-1347.871,1271.848-1345.745,1271.953-1341.643"/>
</g>
<g>
	<rect x="-291.922" y="-1472.953" fill="#FFEB00" width="386.653" height="386.655"/>
	<path fill="#3C1E1E" d="M-98.977-1402.054c-76.698,0-138.873,49.148-138.873,109.788c0,39.463,26.338,74.055,65.882,93.406
		c-2.904,10.842-10.519,39.283-12.041,45.364c-1.885,7.551,2.756,7.453,5.813,5.432c2.391-1.595,38.048-25.85,53.44-36.314
		c8.354,1.239,16.968,1.895,25.779,1.895c76.696,0,138.868-49.145,138.868-109.782C39.892-1352.906-22.28-1402.054-98.977-1402.054"
		/>
	<path fill="#FFEB00" d="M-195.86-1312.479h14.295c0,0,0.091,39.264,0.011,48.408c0.021,6.679,14.87,6.77,14.85,0.1l0.065-47.997
		c0,0,4.787,0.033,14.224,0.038c8.885,0,8.896-13.971,0.009-13.979c-10.013,0-43.476-0.277-43.476-0.277
		C-204.271-1326.174-204.242-1312.479-195.86-1312.479"/>
	<path fill="#FFEB00" d="M-127.444-1309.939l7.954,24.921h-16.58L-127.444-1309.939z M-136.361-1321.612
		c-3.514,7.746-16.222,44.324-20.436,54.031c-3.054,7.012,10.096,12.73,13.146,5.72l2.863-10.003h26.158c0,0-0.903,0.408,2.57,9.578
		c2.814,7.415,16.396,2.273,13.579-5.147c-4.015-10.606-17.909-48.773-20.444-54.179c-1.163-2.502-5.357-4.292-9.408-4.292
		C-131.693-1325.904-134.966-1324.679-136.361-1321.612"/>
	<path fill="#FFEB00" d="M-93.474-1319.323c0.026,12.434,0.071,52.499,0.071,52.499s-1.149,7.962,5.68,7.962
		s21.978-0.072,28.699-0.072c6.715,0,6.681-14.291-0.034-14.291c-6.721,0-18.98-0.07-18.98-0.07s0.057-37.065,0.039-46.063
		c-0.017-4.353-3.869-6.533-7.729-6.533C-89.606-1325.893-93.479-1323.699-93.474-1319.323"/>
	<path fill="#FFEB00" d="M-50.519-1321.301c0.151,5.448-0.173,54.749-0.169,58.4c0.002,5.768,14.679,5.751,14.675-0.009
		c-0.002-6.693,0-19.394,0-19.394l4.313-3.456l18.841,25.712c3.81,5.024,15.796-4.055,11.992-9.077l-20.013-26.36
		c0,0,13.581-14.688,18.938-20.009c3.124-3.101-6.548-12.846-9.672-9.735c-3.024,3.001-24.305,24.301-24.305,24.301
		s0.19-13.375-0.007-20.77c-0.07-2.806-3.519-4.163-7.041-4.163C-46.735-1325.86-50.595-1324.306-50.519-1321.301"/>
</g>
<g>
	<path fill="#FFCD00" d="M-493.249-1648.078h-27.153v-228.15l27.153-5.914V-1648.078z M-420.63-1813.655l21.255,15.344
		l-52.256,65.533l60.518,72.606l-20.965,16.234l-71.426-87.373L-420.63-1813.655z"/>
	<path fill="#FFCD00" d="M-367.078-1691.458c0-16.333,5.459-28.783,16.391-37.335c10.92-8.569,26.813-12.851,47.658-12.851h31.308
		v-10.323c0-24.993-11.03-37.485-33.07-37.485c-7.076,0-14.511,0.984-22.275,2.951c-7.778,1.973-14.911,4.427-21.405,7.378
		l-7.973-19.183c8.066-4.526,16.775-8.02,26.128-10.485c9.343-2.453,18.449-3.69,27.288-3.69c38.185,0,57.268,20.368,57.268,61.097
		v103.306h-20.063l-3.249-17.712c-8.066,6.499-16.675,11.518-25.827,15.063c-9.146,3.545-17.849,5.311-26.13,5.311
		c-14.358,0-25.616-4.083-33.781-12.248C-362.981-1665.836-367.078-1677.095-367.078-1691.458 M-316.113-1667.254
		c3.728,0,7.591-0.495,11.608-1.482c4.017-0.98,8.028-2.254,12.046-3.83c4.02-1.58,7.801-3.499,11.321-5.759
		c3.531-2.27,6.664-4.68,9.416-7.23v-37.779h-28.231c-14.295,0-24.729,2.459-31.303,7.377c-6.555,4.916-9.836,12.695-9.836,23.319
		C-341.092-1675.721-332.773-1667.254-316.113-1667.254"/>
	<path fill="#FFCD00" d="M-170.281-1648.078h-27.153v-228.15l27.153-5.914V-1648.078z M-97.684-1813.655l21.252,15.344
		l-52.227,65.533l60.494,72.606l-20.951,16.234l-71.426-87.373L-97.684-1813.655z"/>
	<path fill="#FFCD00" d="M-44.108-1691.458c0-16.333,5.455-28.783,16.371-37.335c10.937-8.569,26.809-12.851,47.675-12.851h31.287
		v-10.323c0-24.993-11.014-37.485-33.057-37.485c-7.084,0-14.504,0.984-22.287,2.951c-7.787,1.973-14.911,4.427-21.389,7.378
		l-7.977-19.183c8.075-4.526,16.78-8.02,26.119-10.485c9.34-2.453,18.449-3.69,27.303-3.69c38.167,0,57.27,20.368,57.27,61.097
		v103.306H57.118l-3.241-17.712c-8.074,6.499-16.66,11.518-25.83,15.063c-9.146,3.545-17.851,5.311-26.112,5.311
		c-14.374,0-25.639-4.083-33.804-12.248C-40.034-1665.836-44.108-1677.095-44.108-1691.458 M6.854-1667.254
		c3.709,0,7.591-0.495,11.604-1.482c4.021-0.98,8.032-2.254,12.047-3.83c4.022-1.58,7.787-3.499,11.323-5.759
		c3.514-2.27,6.647-4.68,9.396-7.23v-37.779H23.013c-14.313,0-24.752,2.459-31.302,7.377c-6.573,4.916-9.837,12.695-9.837,23.319
		C-18.126-1675.721-9.808-1667.254,6.854-1667.254"/>
	<path fill="#FFCD00" d="M186.449-1812.186c22.426,0,40.051,7.285,52.823,21.838c12.801,14.57,19.202,35.427,19.202,62.584
		c0,26.75-6.345,47.326-19.045,61.692c-12.688,14.349-30.361,21.533-52.98,21.533c-22.427,0-40.048-7.185-52.824-21.533
		c-12.799-14.366-19.199-34.941-19.199-61.692c0-27.157,6.44-48.014,19.336-62.584
		C146.652-1804.901,164.216-1812.186,186.449-1812.186 M186.449-1790.348c-14.161,0-25.036,5.313-32.612,15.947
		c-7.589,10.622-11.375,26.17-11.375,46.637c0,20.262,3.786,35.567,11.375,45.898c7.576,10.324,18.451,15.496,32.612,15.496
		c14.352,0,25.326-5.171,32.916-15.496c7.571-10.331,11.359-25.636,11.359-45.898c0-20.467-3.788-36.016-11.359-46.637
		C211.775-1785.034,200.801-1790.348,186.449-1790.348"/>
</g>
<g>
	<path fill="#3C1E1E" d="M481.258-1648.078h-27.154v-228.15l27.154-5.914V-1648.078z M553.875-1813.655l21.259,15.344
		l-52.257,65.533l60.518,72.606l-20.967,16.234l-71.427-87.373L553.875-1813.655z"/>
	<path fill="#3C1E1E" d="M607.43-1691.458c0-16.333,5.459-28.783,16.391-37.335c10.921-8.569,26.811-12.851,47.658-12.851h31.308
		v-10.323c0-24.993-11.03-37.485-33.073-37.485c-7.073,0-14.511,0.984-22.275,2.951c-7.778,1.973-14.912,4.427-21.405,7.378
		l-7.972-19.183c8.068-4.526,16.773-8.02,26.131-10.485c9.342-2.453,18.448-3.69,27.287-3.69c38.183,0,57.266,20.368,57.266,61.097
		v103.306H708.68l-3.25-17.712c-8.065,6.499-16.674,11.518-25.822,15.063c-9.15,3.545-17.852,5.311-26.131,5.311
		c-14.36,0-25.616-4.083-33.781-12.248C611.523-1665.836,607.43-1677.095,607.43-1691.458 M658.396-1667.254
		c3.721,0,7.587-0.495,11.604-1.482c4.018-0.98,8.032-2.254,12.05-3.83c4.02-1.58,7.801-3.499,11.314-5.759
		c3.536-2.27,6.667-4.68,9.422-7.23v-37.779h-28.233c-14.296,0-24.729,2.459-31.304,7.377c-6.553,4.916-9.834,12.695-9.834,23.319
		C633.415-1675.721,641.73-1667.254,658.396-1667.254"/>
	<path fill="#3C1E1E" d="M804.227-1648.078h-27.157v-228.15l27.157-5.914V-1648.078z M876.824-1813.655l21.252,15.344l-52.23,65.533
		l60.498,72.606l-20.953,16.234l-71.427-87.373L876.824-1813.655z"/>
	<path fill="#3C1E1E" d="M930.398-1691.458c0-16.333,5.457-28.783,16.371-37.335c10.937-8.569,26.81-12.851,47.675-12.851h31.288
		v-10.323c0-24.993-11.015-37.485-33.057-37.485c-7.085,0-14.508,0.984-22.293,2.951c-7.78,1.973-14.908,4.427-21.385,7.378
		l-7.976-19.183c8.075-4.526,16.778-8.02,26.121-10.485c9.335-2.453,18.447-3.69,27.301-3.69c38.165,0,57.269,20.368,57.269,61.097
		v103.306h-20.087l-3.243-17.712c-8.071,6.499-16.661,11.518-25.83,15.063c-9.146,3.545-17.851,5.311-26.11,5.311
		c-14.375,0-25.64-4.083-33.808-12.248C934.473-1665.836,930.398-1677.095,930.398-1691.458 M981.361-1667.254
		c3.707,0,7.588-0.495,11.603-1.482c4.02-0.98,8.033-2.254,12.048-3.83c4.02-1.58,7.785-3.499,11.318-5.759
		c3.521-2.27,6.653-4.68,9.402-7.23v-37.779h-28.214c-14.313,0-24.749,2.459-31.304,7.377c-6.57,4.916-9.836,12.695-9.836,23.319
		C956.379-1675.721,964.697-1667.254,981.361-1667.254"/>
	<path fill="#3C1E1E" d="M1160.954-1812.186c22.427,0,40.05,7.285,52.827,21.838c12.796,14.57,19.199,35.427,19.199,62.584
		c0,26.75-6.346,47.326-19.047,61.692c-12.685,14.349-30.359,21.533-52.979,21.533c-22.426,0-40.047-7.185-52.823-21.533
		c-12.801-14.366-19.197-34.941-19.197-61.692c0-27.157,6.439-48.014,19.333-62.584
		C1121.159-1804.901,1138.725-1812.186,1160.954-1812.186 M1160.954-1790.348c-14.159,0-25.036,5.313-32.612,15.947
		c-7.586,10.622-11.373,26.17-11.373,46.637c0,20.262,3.787,35.567,11.373,45.898c7.576,10.324,18.453,15.496,32.612,15.496
		c14.354,0,25.326-5.171,32.92-15.496c7.568-10.331,11.354-25.636,11.354-45.898c0-20.467-3.786-36.016-11.354-46.637
		C1186.28-1785.034,1175.309-1790.348,1160.954-1790.348"/>
</g>
<g>
	<path fill="#FAE100" d="M-375.672-682.907c0,47.982-38.674,86.878-86.383,86.878h-215.506c-47.709,0-86.384-38.896-86.384-86.878
		v-216.736c0-47.979,38.674-86.881,86.384-86.881h215.506c47.709,0,86.383,38.902,86.383,86.881V-682.907z"/>
	<path fill="#020303" d="M-570.007-917.956c-67.828,0-122.799,50.854-122.799,113.584c0,46.329,19.405,68.447,45.981,88.606
		l0.124,0.062v54.367c0,2.57,2.929,4.033,4.988,2.5l46.562-34.583l1.003,0.433c7.803,1.439,15.875,2.202,24.142,2.202
		c67.818,0,122.792-50.856,122.792-113.586C-447.215-867.103-502.189-917.956-570.007-917.956 M-611.176-775.591
		c12.042,0,22.333-7.206,25.438-18.333h17.795c-4.35,21.423-21.025,35.461-43.234,35.461c-25.804,0-46.269-19.248-46.269-46.038
		c0-26.791,20.465-46.038,46.269-46.038c22.431,0,39.227,14.323,43.366,36.115h-17.752c-2.699-11.844-13.35-19.232-25.614-19.232
		c-17.352,0-28.894,12.382-28.894,29.155C-640.07-787.721-626.95-775.591-611.176-775.591 M-493.857-760.227h-16.317v-36.808
		c0-8.47-4.939-13.026-12.521-13.026c-8.479,0-13.912,5.179-13.912,15.681v34.153h-16.322v-90.028h16.322v33.864
		c3.91-5.946,10.239-8.851,18.841-8.851c6.96,0,12.65,2.276,17.072,6.954c4.555,4.684,6.837,11.004,6.837,19.227V-760.227z"/>
</g>
<g>
	<rect x="-291.922" y="-984.854" fill="#FAE100" width="387.158" height="387.159"/>
	<path fill="#020303" d="M-99.098-911.268c-67.826,0-122.797,50.851-122.797,113.584c0,46.329,19.404,68.445,45.98,88.604
		l0.123,0.062v54.367c0,2.573,2.928,4.032,4.988,2.5l46.561-34.583l1.006,0.436c7.803,1.437,15.873,2.199,24.139,2.199
		c67.82,0,122.793-50.856,122.793-113.584C23.695-860.417-31.277-911.268-99.098-911.268 M-140.266-768.905
		c12.043,0,22.334-7.206,25.439-18.333h17.795c-4.35,21.423-21.025,35.461-43.234,35.461c-25.803,0-46.27-19.245-46.27-46.038
		c0-26.788,20.467-46.038,46.27-46.038c22.432,0,39.225,14.327,43.365,36.119h-17.75c-2.701-11.847-13.352-19.235-25.615-19.235
		c-17.352,0-28.896,12.382-28.896,29.154C-169.162-781.035-156.041-768.905-140.266-768.905 M-22.947-753.539h-16.316v-36.808
		c0-8.473-4.939-13.029-12.521-13.029c-8.473,0-13.91,5.179-13.91,15.681v34.156h-16.322v-90.031h16.322v33.862
		c3.908-5.941,10.238-8.846,18.84-8.846c6.957,0,12.648,2.274,17.068,6.954c4.559,4.682,6.84,11.004,6.84,19.227V-753.539z"/>
</g>
<g>
	<path fill="#FDDB00" d="M114.428,5.757C54.236,5.757,5.443,50.882,5.443,106.562c0,41.114,17.223,60.745,40.811,78.641l0.109,0.049
		v48.248c0,2.283,2.6,3.587,4.428,2.225l41.322-30.693l0.895,0.383c6.924,1.274,14.088,1.955,21.42,1.955
		c60.189,0,108.982-45.137,108.982-100.807C223.41,50.882,174.617,5.757,114.428,5.757"/>
	<path fill="#020303" d="M114.428,0C51.229,0,0,47.38,0,105.836c0,43.171,18.084,63.784,42.848,82.569l0.117,0.053v50.66
		c0,2.397,2.729,3.762,4.645,2.336L91,209.225l0.938,0.404c7.271,1.339,14.791,2.05,22.49,2.05
		c63.197,0,114.424-47.39,114.424-105.843C228.852,47.38,177.625,0,114.428,0 M76.072,132.654c11.215,0,20.811-6.711,23.699-17.081
		h16.584c-4.053,19.963-19.592,33.043-40.283,33.043c-24.051,0-43.115-17.938-43.115-42.901c0-24.96,19.064-42.896,43.115-42.896
		c20.9,0,36.545,13.345,40.404,33.656H99.934C97.42,85.437,87.496,78.554,76.072,78.554c-16.17,0-26.928,11.534-26.928,27.161
		C49.145,121.356,61.371,132.654,76.072,132.654 M185.385,146.973h-15.203v-34.298c0-7.893-4.6-12.139-11.668-12.139
		c-7.896,0-12.959,4.828-12.959,14.611v31.825h-15.211V63.084h15.211v31.552c3.645-5.534,9.545-8.246,17.555-8.246
		c6.486,0,11.789,2.123,15.908,6.482c4.246,4.362,6.367,10.255,6.367,17.916V146.973z"/>
</g>
<g>
	<g>
		<circle fill-rule="evenodd" clip-rule="evenodd" fill="#FAE100" cx="357.239" cy="-801.635" r="194.173"/>
	</g>
	<path fill="#020303" d="M357.241-912.291c-63.199,0-114.428,47.38-114.428,105.836c0,43.171,18.084,63.784,42.848,82.57
		l0.117,0.052v50.661c0,2.397,2.729,3.762,4.645,2.336l43.391-32.229l0.938,0.404c7.271,1.339,14.791,2.05,22.49,2.05
		c63.197,0,114.424-47.39,114.424-105.843C471.665-864.911,420.438-912.291,357.241-912.291 M318.886-779.637
		c11.215,0,20.811-6.711,23.699-17.082h16.584c-4.053,19.963-19.592,33.043-40.283,33.043c-24.051,0-43.115-17.937-43.115-42.901
		c0-24.959,19.064-42.896,43.115-42.896c20.9,0,36.545,13.345,40.404,33.656h-16.543c-2.514-11.038-12.438-17.921-23.861-17.921
		c-16.17,0-26.928,11.535-26.928,27.162C291.958-790.934,304.185-779.637,318.886-779.637 M428.198-765.318h-15.203v-34.297
		c0-7.893-4.6-12.14-11.668-12.14c-7.896,0-12.959,4.829-12.959,14.612v31.825h-15.211v-83.889h15.211v31.552
		c3.645-5.534,9.545-8.246,17.555-8.246c6.486,0,11.789,2.123,15.908,6.482c4.246,4.363,6.367,10.255,6.367,17.916V-765.318z"/>
</g>
<g>
	<path fill="#010202" d="M1230.43-906.532c-60.193,0-108.984,45.123-108.984,100.803c0,41.114,17.223,60.748,40.811,78.644
		l0.107,0.046v48.248c0,2.287,2.604,3.585,4.428,2.225l41.324-30.697l0.895,0.386c6.924,1.274,14.088,1.957,21.42,1.957
		c60.189,0,108.98-45.139,108.98-100.809C1339.41-861.409,1290.619-906.532,1230.43-906.532"/>
	<path fill="#FAE100" d="M1230.43-912.291c-63.199,0-114.428,47.385-114.428,105.836c0,43.169,18.084,63.781,42.85,82.57
		l0.115,0.052v50.661c0,2.4,2.73,3.762,4.645,2.333L1207-703.066l0.941,0.404c7.27,1.342,14.789,2.052,22.488,2.052
		c63.195,0,114.424-47.392,114.424-105.845C1344.854-864.906,1293.625-912.291,1230.43-912.291 M1192.074-779.637
		c11.215,0,20.811-6.711,23.697-17.079h16.586c-4.055,19.96-19.592,33.043-40.283,33.043c-24.051,0-43.115-17.939-43.115-42.904
		c0-24.957,19.064-42.894,43.115-42.894c20.9,0,36.545,13.342,40.406,33.659h-16.545c-2.516-11.046-12.439-17.927-23.861-17.927
		c-16.17,0-26.926,11.535-26.926,27.162C1165.148-790.931,1177.373-779.637,1192.074-779.637 M1301.389-765.318h-15.205v-34.295
		c0-7.896-4.602-12.142-11.668-12.142c-7.896,0-12.961,4.829-12.961,14.615v31.822h-15.211v-83.886h15.211v31.549
		c3.646-5.532,9.543-8.244,17.555-8.244c6.486,0,11.791,2.123,15.91,6.482c4.248,4.363,6.369,10.254,6.369,17.911V-765.318z"/>
</g>
</svg>
