<?xml version="1.0" encoding="utf-8"?>
<!-- Generator: Adobe Illustrator 16.0.0, SVG Export Plug-In . SVG Version: 6.00 Build 0)  -->
<!DOCTYPE svg PUBLIC "-//W3C//DTD SVG 1.1//EN" "http://www.w3.org/Graphics/SVG/1.1/DTD/svg11.dtd">
<svg version="1.1" id="Layer_1" xmlns="http://www.w3.org/2000/svg" xmlns:xlink="http://www.w3.org/1999/xlink" x="0px" y="0px"
	 width="80px" height="80px" viewBox="0 0 80 80" enable-background="new 0 0 80 80" xml:space="preserve">
<rect fill="none" width="80" height="80"/>
<line fill="none" stroke="#737373" stroke-width="4" stroke-linecap="round" stroke-linejoin="round" x1="13.125" y1="22.5" x2="66.875" y2="22.5"/>
<line fill="none" stroke="#737373" stroke-width="4" stroke-linecap="round" stroke-linejoin="round" x1="13.125" y1="37.5" x2="66.875" y2="37.5"/>
<path fill="none" stroke="#737373" stroke-width="4" stroke-linecap="round" stroke-linejoin="round" d="M66.875,60h-53.75V20
	c-0.017-4.125,3.313-7.483,7.438-7.5c0.021,0,0.042,0,0.063,0h38.75c4.125-0.017,7.481,3.313,7.5,7.438c0,0.021,0,0.042,0,0.063
	L66.875,60L66.875,60z"/>
<path fill="none" stroke="#737373" stroke-width="4" stroke-linecap="round" stroke-linejoin="round" d="M66.875,60v7.5
	c0,1.381-1.119,2.5-2.5,2.5h-7.5c-1.381,0-2.5-1.119-2.5-2.5V60"/>
<path fill="none" stroke="#737373" stroke-width="4" stroke-linecap="round" stroke-linejoin="round" d="M25.625,60v7.5
	c0,1.381-1.119,2.5-2.5,2.5h-7.5c-1.381,0-2.5-1.119-2.5-2.5V60"/>
<circle fill="#E4007E" cx="26.25" cy="48.75" r="3.75"/>
<circle fill="#E4007E" cx="53.75" cy="48.75" r="3.75"/>
</svg>
