<?xml version="1.0" encoding="utf-8"?>
<!-- Generator: Adobe Illustrator 16.0.0, SVG Export Plug-In . SVG Version: 6.00 Build 0)  -->
<!DOCTYPE svg PUBLIC "-//W3C//DTD SVG 1.1//EN" "http://www.w3.org/Graphics/SVG/1.1/DTD/svg11.dtd">
<svg version="1.1" id="Layer_1" xmlns="http://www.w3.org/2000/svg" xmlns:xlink="http://www.w3.org/1999/xlink" x="0px" y="0px"
	 width="80px" height="80px" viewBox="0 0 80 80" enable-background="new 0 0 80 80" xml:space="preserve">
<rect fill="none" width="80" height="80"/>
<line fill="none" stroke="#737373" stroke-width="4" stroke-linecap="round" stroke-linejoin="round" x1="5" y1="37.5" x2="75" y2="37.5"/>
<path fill="none" stroke="#737373" stroke-width="4" stroke-linecap="round" stroke-linejoin="round" d="M70,57.5V65
	c0,1.381-1.119,2.5-2.5,2.5H60c-1.381,0-2.5-1.119-2.5-2.5v-7.5"/>
<path fill="none" stroke="#737373" stroke-width="4" stroke-linecap="round" stroke-linejoin="round" d="M22.5,57.5V65
	c0,1.381-1.119,2.5-2.5,2.5h-7.5c-1.381,0-2.5-1.119-2.5-2.5v-7.5"/>
<line fill="none" stroke="#E4007E" stroke-width="4" stroke-linecap="round" stroke-linejoin="round" x1="20" y1="47.5" x2="25" y2="47.5"/>
<line fill="none" stroke="#E4007E" stroke-width="4" stroke-linecap="round" stroke-linejoin="round" x1="55" y1="47.5" x2="60" y2="47.5"/>
<path fill="none" stroke="#737373" stroke-width="4" stroke-linecap="round" stroke-linejoin="round" d="M70,37.5l-9.344-21
	c-0.396-0.908-1.291-1.496-2.281-1.5h-36.75c-0.99,0.004-1.885,0.592-2.281,1.5L10,37.5v20h60V37.5z"/>
</svg>
