<?xml version="1.0" encoding="utf-8"?>
<!-- Generator: Adobe Illustrator 16.0.0, SVG Export Plug-In . SVG Version: 6.00 Build 0)  -->
<!DOCTYPE svg PUBLIC "-//W3C//DTD SVG 1.1//EN" "http://www.w3.org/Graphics/SVG/1.1/DTD/svg11.dtd">
<svg version="1.1" xmlns="http://www.w3.org/2000/svg" xmlns:xlink="http://www.w3.org/1999/xlink" x="0px" y="0px" width="1800px"
	 height="1021px" viewBox="0 0 1800 1021" enable-background="new 0 0 1800 1021" xml:space="preserve">
<g id="Layer_2">
	<rect y="153" fill="#F3F8FF" width="1799" height="868"/>
</g>
<g id="Layer_3" display="none">
	<polyline display="inline" opacity="0.5" fill="#FF9292" stroke="#000000" stroke-miterlimit="10" points="68.5,216 68.5,783 
		746.5,673.095 746.5,730 1728.5,565.1 1728.5,216 	"/>
</g>
<g id="Layer_1">
	<polyline fill="#FFF6F8" stroke="#C8D0DD" stroke-miterlimit="10" points="367.5,376 367.5,592.5 68.5,592.5 68.5,376.5 
		367.5,376.5 367.5,593 	"/>
	<rect x="989.5" y="376.5" fill="#FFF6F8" stroke="#C8D0DD" stroke-miterlimit="10" width="739" height="344"/>
	<polygon fill="#FFF6F8" stroke="#C8D0DD" stroke-miterlimit="10" points="69.5,641.5 69.5,857.5 69.5,943 368.5,895 368.5,857.5 
		368.5,641.5 	"/>
	<polygon fill="#FFF6F8" stroke="#C8D0DD" stroke-miterlimit="10" points="368.5,641.5 368.5,857.5 368,857.5 368.5,858 368.5,895 
		555.5,863.057 555.5,857.5 555.5,641.5 	"/>
	<polygon fill="#FFFFFF" stroke="#C8D0DD" stroke-miterlimit="10" points="555.5,641.5 555.5,832 555.5,832.5 555.5,863.057 
		742.5,830.828 742.5,830.828 742.5,641.5 	"/>
	<polygon display="none" fill="#FFFFFF" stroke="#DFDFDF" stroke-miterlimit="10" points="555.5,641.5 555.5,832 555.5,832.5 
		555.5,863.057 742.5,830.828 742.5,830.828 742.5,641.5 	"/>
	<polygon fill="#FFFFFF" stroke="#C8D0DD" stroke-miterlimit="10" points="1731,720.5 989.5,720.5 989.5,641.5 742.5,641.5 
		742.5,830.828 742.5,830.828 742.5,890.5 	"/>
	<rect x="367.5" y="376.5" fill="#FFFFFF" stroke="#C8D0DD" stroke-miterlimit="10" width="187" height="216"/>
	<rect x="882.5" y="376.5" fill="#FFFFFF" stroke="#C8D0DD" stroke-miterlimit="10" width="107" height="185"/>
	<rect x="1489.5" y="158.5" fill="#FFFFFF" stroke="#C8D0DD" stroke-miterlimit="10" width="161" height="126"/>
	<rect x="1328.5" y="158.5" fill="#FFFFFF" stroke="#C8D0DD" stroke-miterlimit="10" width="161" height="126"/>
	<rect x="1167.5" y="158.5" fill="#FFFFFF" stroke="#C8D0DD" stroke-miterlimit="10" width="161" height="126"/>
	<rect x="1006.5" y="158.5" fill="#FFFFFF" stroke="#C8D0DD" stroke-miterlimit="10" width="161" height="126"/>
	<rect x="845.5" y="158.5" fill="#FFFFFF" stroke="#C8D0DD" stroke-miterlimit="10" width="161" height="126"/>
	<polygon fill="#FFF6F8" stroke="#C8D0DD" stroke-miterlimit="10" points="555,752.5 742.5,752.5 742.5,831 555.109,863.057 	"/>
	<rect x="608.5" y="641.5" fill="#FFF6F8" stroke="#C8D0DD" stroke-miterlimit="10" width="134" height="111"/>
</g>
<g id="Layer_4">
	
		<text transform="matrix(1 0 0 1 161.6279 495.0986)" fill="#333333" font-family="'Pretendard-Medium-KSCpc-EUC-H'" font-size="24">일반강의실A</text>
	
		<text transform="matrix(1 0 0 1 1330.0977 538.5957)" fill="#333333" font-family="'Pretendard-Medium-KSCpc-EUC-H'" font-size="24">모두극장</text>
	
		<text transform="matrix(1 0 0 1 420.2656 495.0986)" fill="#333333" font-family="'Pretendard-Medium-KSCpc-EUC-H'" font-size="24">기자재실</text>
	
		<text transform="matrix(1 0 0 1 854.9712 266.0986)" fill="#333333" font-family="'Pretendard-Medium-KSCpc-EUC-H'" font-size="21">장애인화장실(여)</text>
	
		<text transform="matrix(1 0 0 1 1043.1953 266.0986)" fill="#333333" font-family="'Pretendard-Medium-KSCpc-EUC-H'" font-size="21">화장실(여)</text>
	
		<text transform="matrix(1 0 0 1 1176.9707 266.0986)" fill="#333333" font-family="'Pretendard-Medium-KSCpc-EUC-H'" font-size="21">장애인화장실(남)</text>
	
		<text transform="matrix(1 0 0 1 1365.1953 266.0986)" fill="#333333" font-family="'Pretendard-Medium-KSCpc-EUC-H'" font-size="21">화장실(남)</text>
	
		<text transform="matrix(1 0 0 1 1512.9883 266.0986)" fill="#333333" font-family="'Pretendard-Medium-KSCpc-EUC-H'" font-size="21">임산부 휴게실</text>
	
		<text transform="matrix(1 0 0 1 151.6279 760.5879)" fill="#333333" font-family="'Pretendard-Medium-KSCpc-EUC-H'" font-size="24">다목적스튜디오</text>
	
		<text transform="matrix(1 0 0 1 403.6416 760.5879)" fill="#333333" font-family="'Pretendard-Medium-KSCpc-EUC-H'" font-size="24">1인미디어실</text>
	
		<text transform="matrix(1 0 0 1 627.3081 707.9209)" fill="#333333" font-family="'Pretendard-Medium-KSCpc-EUC-H'" font-size="24">동아리방A</text>
	
		<text transform="matrix(1 0 0 1 598.9746 803.9209)" fill="#333333" font-family="'Pretendard-Medium-KSCpc-EUC-H'" font-size="24">동아리방B</text>
	
		<text transform="matrix(1 0 0 1 843.6416 760.5879)" fill="#333333" font-family="'Pretendard-Medium-KSCpc-EUC-H'" font-size="24">사무실</text>
	<text transform="matrix(1 0 0 1 909.6367 458.0986)"><tspan x="0" y="0" fill="#333333" font-family="'Pretendard-Medium-KSCpc-EUC-H'" font-size="24">미디어</tspan><tspan x="10.371" y="28.8" fill="#333333" font-family="'Pretendard-Medium-KSCpc-EUC-H'" font-size="24">카페</tspan></text>
</g>
<g id="Layer_5">
	<circle fill="#8FBAFF" cx="926.111" cy="203.604" r="35"/>
	<circle fill="#8FBAFF" cx="608.111" cy="192.604" r="35"/>
	<circle fill="#8FBAFF" cx="40.111" cy="278.604" r="35"/>
	<circle fill="#8FBAFF" cx="1087.111" cy="203.604" r="35"/>
	<circle fill="#8FBAFF" cx="1248.111" cy="203.604" r="35"/>
	<circle fill="#8FBAFF" cx="1409.111" cy="203.604" r="35"/>
	<circle fill="#8FBAFF" cx="1570.111" cy="203.604" r="35"/>
	<path display="none" fill="#FFFFFF" d="M603.442,190.846v3c0,0.258,0.086,0.473,0.259,0.645c0.172,0.173,0.387,0.259,0.645,0.259
		h0.693c0.258,0,0.473-0.086,0.645-0.259c0.172-0.172,0.259-0.387,0.259-0.645v-3h0.097c0.195-0.113,0.395-0.23,0.599-0.351
		c0.203-0.121,0.305-0.306,0.305-0.553v-1.635c0-0.486-0.171-0.899-0.511-1.239s-0.754-0.511-1.239-0.511h-1
		c-0.485,0-0.899,0.17-1.239,0.511c-0.341,0.34-0.511,0.753-0.511,1.239v1.635c0,0.247,0.102,0.432,0.305,0.553
		s0.403,0.238,0.599,0.351H603.442z M604.692,185.596c0.324,0,0.598-0.111,0.82-0.333c0.222-0.223,0.333-0.496,0.333-0.82
		s-0.111-0.598-0.333-0.82c-0.223-0.223-0.496-0.333-0.82-0.333c-0.325,0-0.598,0.111-0.82,0.333
		c-0.222,0.223-0.333,0.496-0.333,0.82s0.111,0.598,0.333,0.82C604.095,185.485,604.367,185.596,604.692,185.596z M610.045,187.75
		h2.719c0.154,0,0.268-0.065,0.336-0.195c0.069-0.13,0.066-0.259-0.008-0.388l-1.369-2.185c-0.074-0.128-0.18-0.192-0.318-0.192
		s-0.245,0.064-0.32,0.192l-1.369,2.185c-0.074,0.128-0.076,0.258-0.008,0.388C609.777,187.685,609.889,187.75,610.045,187.75z
		 M611.723,193.018l1.369-2.185c0.074-0.128,0.077-0.258,0.008-0.388c-0.068-0.13-0.182-0.195-0.336-0.195h-2.719
		c-0.156,0-0.268,0.065-0.338,0.195c-0.068,0.13-0.066,0.259,0.008,0.388l1.369,2.185c0.075,0.128,0.182,0.192,0.32,0.192
		S611.648,193.146,611.723,193.018z M601.308,197.5c-0.505,0-0.933-0.175-1.282-0.525c-0.351-0.35-0.525-0.778-0.525-1.283v-13.385
		c0-0.505,0.175-0.933,0.525-1.283c0.35-0.35,0.777-0.525,1.282-0.525h13.385c0.505,0,0.933,0.175,1.282,0.525
		c0.351,0.35,0.525,0.778,0.525,1.283v13.385c0,0.505-0.175,0.933-0.525,1.283c-0.35,0.35-0.777,0.525-1.282,0.525H601.308z
		 M601.308,196h13.385c0.09,0,0.163-0.029,0.222-0.086c0.057-0.058,0.086-0.131,0.086-0.221v-13.385c0-0.09-0.029-0.163-0.086-0.221
		c-0.059-0.058-0.132-0.086-0.222-0.086h-13.385c-0.09,0-0.163,0.029-0.222,0.086c-0.057,0.058-0.086,0.131-0.086,0.221v13.385
		c0,0.09,0.029,0.163,0.086,0.221C601.145,195.971,601.218,196,601.308,196z M601,196v-14V196z"/>
	<path fill="#FFFFFF" d="M598.884,197.692v6.73c0,0.412,0.138,0.755,0.413,1.03s0.618,0.412,1.03,0.412h2.115
		c0.412,0,0.755-0.137,1.03-0.412c0.274-0.275,0.412-0.618,0.412-1.03v-6.73h0.558c0.446,0.039,0.798-0.087,1.056-0.377
		s0.386-0.645,0.386-1.065v-4c0-0.972-0.34-1.798-1.021-2.479c-0.681-0.681-1.507-1.021-2.479-1.021h-2
		c-0.972,0-1.798,0.34-2.479,1.021c-0.681,0.681-1.021,1.507-1.021,2.479v4c0,0.42,0.129,0.775,0.387,1.065s0.61,0.415,1.056,0.377
		H598.884z M601.38,187.05c0.693,0,1.289-0.248,1.787-0.743c0.499-0.496,0.748-1.091,0.748-1.783s-0.248-1.288-0.744-1.787
		c-0.496-0.499-1.09-0.748-1.782-0.748c-0.693,0-1.289,0.248-1.787,0.744s-0.748,1.09-0.748,1.782c0,0.693,0.248,1.289,0.744,1.787
		C600.093,186.801,600.688,187.05,601.38,187.05z M611.581,191.135h6.088c0.251,0,0.431-0.097,0.542-0.289
		c0.11-0.192,0.102-0.39-0.026-0.592l-3.073-4.908c-0.109-0.182-0.268-0.272-0.473-0.272s-0.371,0.091-0.5,0.272l-3.073,4.908
		c-0.128,0.202-0.137,0.399-0.026,0.592C611.15,191.038,611.33,191.135,611.581,191.135z M615.111,202.654l3.073-4.908
		c0.128-0.202,0.137-0.399,0.026-0.592c-0.111-0.192-0.291-0.289-0.542-0.289h-6.088c-0.251,0-0.431,0.097-0.542,0.289
		c-0.11,0.192-0.102,0.39,0.026,0.592l3.073,4.908c0.109,0.182,0.268,0.272,0.473,0.272S614.982,202.836,615.111,202.654z
		 M593.884,211c-0.784,0-1.461-0.285-2.03-0.854S591,208.9,591,208.115v-28.23c0-0.767,0.285-1.439,0.854-2.018
		S593.1,177,593.884,177h28.231c0.768,0,1.439,0.289,2.018,0.867s0.867,1.251,0.867,2.018v28.23c0,0.785-0.289,1.461-0.867,2.031
		s-1.25,0.854-2.018,0.854H593.884z M593.884,208.73h28.231c0.18,0,0.327-0.058,0.442-0.173s0.173-0.263,0.173-0.442v-28.23
		c0-0.18-0.058-0.327-0.173-0.442s-0.263-0.173-0.442-0.173h-28.231c-0.179,0-0.327,0.058-0.442,0.173s-0.173,0.263-0.173,0.442
		v28.23c0,0.18,0.058,0.327,0.173,0.442S593.705,208.73,593.884,208.73z M593.27,208.73V179.27V208.73z"/>
	<path fill="#FFFFFF" d="M922.954,220.538c-2.639,0-4.864-0.906-6.677-2.719c-1.813-1.813-2.72-4.038-2.72-6.677
		c0-1.929,0.59-3.699,1.77-5.313c1.179-1.614,2.761-2.758,4.742-3.429c0.29-0.104,0.569-0.089,0.841,0.042
		c0.27,0.131,0.457,0.341,0.56,0.631c0.103,0.289,0.085,0.569-0.052,0.84c-0.138,0.271-0.352,0.457-0.641,0.56
		c-1.473,0.482-2.66,1.34-3.564,2.573c-0.903,1.233-1.355,2.599-1.355,4.097c0,2.022,0.678,3.717,2.031,5.08
		c1.354,1.364,3.042,2.047,5.065,2.047c1.497,0,2.862-0.441,4.096-1.325s2.081-2.055,2.542-3.514
		c0.104-0.311,0.295-0.542,0.576-0.696c0.28-0.153,0.565-0.173,0.855-0.058c0.289,0.103,0.5,0.286,0.631,0.55
		c0.131,0.265,0.145,0.541,0.041,0.831c-0.658,1.948-1.801,3.516-3.428,4.702C926.641,219.945,924.869,220.538,922.954,220.538z
		 M939.05,220.538c-0.331,0-0.603-0.106-0.815-0.319s-0.318-0.484-0.318-0.814v-8.739c0-0.153-0.045-0.275-0.135-0.365
		s-0.212-0.135-0.365-0.135h-10.201c-0.896,0-1.664-0.317-2.299-0.953c-0.637-0.637-0.955-1.396-0.955-2.281v-12.215
		c0-0.897,0.313-1.658,0.936-2.281s1.383-0.935,2.281-0.935c0.6,0,1.144,0.134,1.632,0.402c0.489,0.268,1.087,0.815,1.794,1.644
		c1.4,1.613,2.786,2.904,4.158,3.874c1.371,0.969,2.881,1.616,4.527,1.941c0.33,0.054,0.605,0.196,0.824,0.425
		c0.22,0.23,0.329,0.51,0.329,0.841s-0.123,0.6-0.37,0.806c-0.245,0.206-0.523,0.283-0.834,0.229
		c-1.615-0.271-3.162-0.821-4.641-1.649s-2.975-1.971-4.49-3.427V207.1h6.823c0.91,0,1.681,0.315,2.31,0.945
		c0.629,0.629,0.944,1.393,0.944,2.29v9.069c0,0.33-0.106,0.602-0.319,0.814S939.381,220.538,939.05,220.538z M927.178,188.762
		c-0.949,0-1.76-0.339-2.432-1.018c-0.672-0.678-1.008-1.485-1.008-2.421c0-0.949,0.336-1.759,1.008-2.431s1.482-1.008,2.432-1.008
		c0.936,0,1.742,0.336,2.42,1.008c0.679,0.672,1.018,1.481,1.018,2.431c0,0.936-0.339,1.743-1.018,2.421
		C928.92,188.423,928.113,188.762,927.178,188.762z"/>
	<path fill="#FFFFFF" d="M1243.954,220.538c-2.639,0-4.864-0.906-6.677-2.719c-1.813-1.813-2.72-4.038-2.72-6.677
		c0-1.929,0.59-3.699,1.77-5.313c1.179-1.614,2.761-2.758,4.742-3.429c0.29-0.104,0.569-0.089,0.841,0.042
		c0.27,0.131,0.457,0.341,0.56,0.631c0.103,0.289,0.085,0.569-0.052,0.84c-0.138,0.271-0.352,0.457-0.641,0.56
		c-1.473,0.482-2.66,1.34-3.564,2.573c-0.903,1.233-1.355,2.599-1.355,4.097c0,2.022,0.678,3.717,2.031,5.08
		c1.354,1.364,3.042,2.047,5.065,2.047c1.497,0,2.862-0.441,4.096-1.325s2.081-2.055,2.542-3.514
		c0.104-0.311,0.295-0.542,0.576-0.696c0.28-0.153,0.565-0.173,0.855-0.058c0.289,0.103,0.5,0.286,0.631,0.55
		c0.131,0.265,0.145,0.541,0.041,0.831c-0.658,1.948-1.801,3.516-3.428,4.702C1247.641,219.945,1245.869,220.538,1243.954,220.538z
		 M1260.05,220.538c-0.331,0-0.603-0.106-0.815-0.319s-0.318-0.484-0.318-0.814v-8.739c0-0.153-0.045-0.275-0.135-0.365
		s-0.212-0.135-0.365-0.135h-10.201c-0.896,0-1.664-0.317-2.299-0.953c-0.637-0.637-0.955-1.396-0.955-2.281v-12.215
		c0-0.897,0.313-1.658,0.936-2.281s1.383-0.935,2.281-0.935c0.6,0,1.144,0.134,1.632,0.402c0.489,0.268,1.087,0.815,1.794,1.644
		c1.4,1.613,2.786,2.904,4.158,3.874c1.371,0.969,2.881,1.616,4.527,1.941c0.33,0.054,0.605,0.196,0.824,0.425
		c0.22,0.23,0.329,0.51,0.329,0.841s-0.123,0.6-0.37,0.806c-0.245,0.206-0.523,0.283-0.834,0.229
		c-1.615-0.271-3.162-0.821-4.641-1.649s-2.975-1.971-4.49-3.427V207.1h6.823c0.91,0,1.681,0.315,2.31,0.945
		c0.629,0.629,0.944,1.393,0.944,2.29v9.069c0,0.33-0.106,0.602-0.319,0.814S1260.381,220.538,1260.05,220.538z M1248.178,188.762
		c-0.949,0-1.76-0.339-2.432-1.018c-0.672-0.678-1.008-1.485-1.008-2.421c0-0.949,0.336-1.759,1.008-2.431s1.482-1.008,2.432-1.008
		c0.936,0,1.742,0.336,2.42,1.008c0.679,0.672,1.018,1.481,1.018,2.431c0,0.936-0.339,1.743-1.018,2.421
		C1249.92,188.423,1249.113,188.762,1248.178,188.762z"/>
	<path fill="#FFFFFF" d="M1405.781,222.258l-3.178-24.335c-0.12-0.861,0.111-1.617,0.695-2.269s1.313-0.978,2.189-0.978h7.023
		c0.876,0,1.605,0.326,2.189,0.978s0.815,1.407,0.695,2.269l-3.178,24.335c-0.066,0.354-0.236,0.649-0.51,0.886
		c-0.273,0.237-0.592,0.356-0.954,0.356h-3.521c-0.361,0-0.678-0.119-0.948-0.356
		C1406.016,222.907,1405.848,222.611,1405.781,222.258z M1409.004,191.3c-0.957,0-1.77-0.336-2.438-1.009
		c-0.669-0.673-1.004-1.481-1.004-2.425c0-0.956,0.333-1.769,1-2.438c0.667-0.669,1.478-1.004,2.435-1.004s1.77,0.333,2.438,1
		c0.669,0.667,1.004,1.479,1.004,2.435c0,0.944-0.333,1.753-1,2.429C1410.771,190.962,1409.961,191.3,1409.004,191.3z"/>
	<path fill="#FFFFFF" d="M34.984,282.484H39c0.322,0,0.592-0.108,0.809-0.325c0.217-0.218,0.326-0.487,0.326-0.809v-5.516h4.016
		c0.322,0,0.592-0.108,0.809-0.326c0.217-0.217,0.326-0.487,0.326-0.809v-5.565H49c0.322,0,0.592-0.109,0.809-0.328
		c0.217-0.219,0.326-0.491,0.326-0.815c0-0.325-0.109-0.594-0.326-0.807s-0.486-0.319-0.809-0.319h-4.85
		c-0.322,0-0.592,0.109-0.81,0.326c-0.217,0.217-0.325,0.487-0.325,0.809v5.516H39c-0.322,0-0.592,0.108-0.809,0.325
		c-0.217,0.218-0.325,0.487-0.325,0.809v5.516H33.85c-0.322,0-0.592,0.108-0.809,0.326c-0.217,0.217-0.326,0.487-0.326,0.809v5.565
		H29c-0.322,0-0.592,0.109-0.809,0.328c-0.217,0.219-0.325,0.491-0.325,0.815c0,0.325,0.108,0.594,0.325,0.807
		c0.217,0.213,0.487,0.319,0.809,0.319h4.85c0.322,0,0.592-0.109,0.809-0.326c0.217-0.217,0.325-0.487,0.325-0.809V282.484z
		 M24.884,295c-0.784,0-1.461-0.285-2.03-0.854S22,292.9,22,292.115v-28.23c0-0.785,0.285-1.461,0.854-2.031S24.1,261,24.884,261
		h28.231c0.785,0,1.461,0.285,2.031,0.854C55.715,262.423,56,263.1,56,263.885v28.23c0,0.785-0.285,1.461-0.854,2.031
		C54.576,294.715,53.9,295,53.115,295H24.884z M24.884,292.73h28.231c0.154,0,0.295-0.064,0.424-0.192
		c0.127-0.128,0.191-0.269,0.191-0.423v-28.23c0-0.154-0.064-0.295-0.191-0.423c-0.129-0.128-0.27-0.192-0.424-0.192H24.884
		c-0.153,0-0.294,0.064-0.423,0.192c-0.128,0.128-0.192,0.269-0.192,0.423v28.23c0,0.154,0.064,0.295,0.192,0.423
		C24.59,292.667,24.731,292.73,24.884,292.73z M24.27,263.27v29.461V263.27z"/>
	<path fill="#FFFFFF" d="M1084.457,220.058v-9.942h-4.33c-0.486,0-0.881-0.202-1.186-0.605c-0.305-0.404-0.373-0.833-0.207-1.287
		l4.52-13.642c0.266-0.791,0.748-1.406,1.447-1.846c0.697-0.439,1.463-0.658,2.294-0.658s1.598,0.219,2.299,0.658
		c0.701,0.439,1.185,1.055,1.452,1.846l4.52,13.642c0.166,0.454,0.098,0.883-0.207,1.287c-0.305,0.404-0.699,0.605-1.186,0.605
		h-4.33v9.942c0,0.409-0.142,0.751-0.424,1.028c-0.283,0.276-0.623,0.415-1.02,0.415h-2.199c-0.396,0-0.736-0.138-1.02-0.415
		C1084.599,220.809,1084.457,220.467,1084.457,220.058z M1087.004,189.3c-0.957,0-1.77-0.336-2.438-1.009
		c-0.669-0.673-1.004-1.481-1.004-2.425c0-0.956,0.333-1.769,1-2.438c0.667-0.669,1.478-1.004,2.435-1.004s1.77,0.333,2.438,1
		c0.669,0.667,1.004,1.479,1.004,2.435c0,0.944-0.333,1.753-1,2.429C1088.771,188.962,1087.961,189.3,1087.004,189.3z"/>
	<path fill="#FFFFFF" d="M1569.127,222.404v-8.674h-2.685c-0.409,0-0.751-0.138-1.028-0.415c-0.275-0.276-0.414-0.619-0.414-1.027
		v-13.373c0-1.398,0.399-2.496,1.197-3.294c0.799-0.799,1.889-1.198,3.27-1.198s2.452,0.46,3.214,1.381
		c0.762,0.921,1.142,1.958,1.142,3.112c1.594,0.187,2.854,0.843,3.783,1.969c0.93,1.125,1.395,2.511,1.395,4.157v7.247
		c0,0.409-0.139,0.751-0.414,1.027c-0.277,0.276-0.619,0.415-1.028,0.415h-5.597v8.327c0,0.408-0.141,0.751-0.424,1.028
		c-0.282,0.276-0.621,0.415-1.018,0.415h-0.297c-0.311,0-0.57-0.105-0.781-0.315
		C1569.232,222.975,1569.127,222.714,1569.127,222.404z M1569.497,191.262c-0.952,0-1.764-0.334-2.436-1.003
		c-0.672-0.669-1.007-1.479-1.007-2.431s0.334-1.764,1.002-2.436s1.479-1.008,2.431-1.008s1.765,0.334,2.436,1.003
		c0.673,0.668,1.009,1.479,1.009,2.431s-0.335,1.764-1.004,2.436C1571.26,190.926,1570.449,191.262,1569.497,191.262z"/>
	<circle fill="#00AF6B" cx="40.111" cy="208.604" r="35"/>
	<path display="none" fill="#FFFFFF" d="M29.873,209.175c-0.213,0.217-0.481,0.325-0.807,0.325c-0.313,0-0.58-0.108-0.807-0.325
		c-0.225-0.217-0.337-0.487-0.337-0.81v-12.188c0-0.189,0.042-0.376,0.125-0.559c0.083-0.184,0.202-0.345,0.356-0.483l4.03-3.808
		l-2.046-8.9c-1.346,2.064-2.816,3.63-4.41,4.698s-3.295,1.708-5.105,1.921c-0.307,0.041-0.57-0.047-0.791-0.264
		c-0.222-0.216-0.332-0.484-0.332-0.803c0-0.306,0.111-0.568,0.335-0.786c0.224-0.218,0.497-0.357,0.819-0.416
		c1.658-0.28,3.131-0.904,4.415-1.873c1.284-0.97,2.316-2.077,3.097-3.323l2.08-3.312c0.328-0.503,0.725-0.886,1.19-1.15
		c0.466-0.264,0.993-0.396,1.583-0.396c0.389,0,0.79,0.056,1.201,0.166s1.08,0.366,2.006,0.769l7.28,3.012
		c0.263,0.117,0.475,0.295,0.637,0.535s0.244,0.508,0.244,0.807v6.02c0,0.322-0.106,0.592-0.32,0.809
		c-0.212,0.217-0.481,0.326-0.806,0.326c-0.325,0-0.597-0.109-0.816-0.326c-0.218-0.217-0.327-0.486-0.327-0.809v-5.412L36.6,180
		l3.784,19.315l8.82-1.758c0.276-0.054,0.545-0.006,0.805,0.143c0.261,0.148,0.417,0.372,0.471,0.669
		c0.054,0.311-0.007,0.59-0.183,0.84c-0.175,0.25-0.402,0.402-0.679,0.456l-9.977,2.053c-0.387,0.067-0.742-0.004-1.063-0.212
		c-0.321-0.208-0.531-0.508-0.63-0.899l-1.858-8.219l-5.9,5.469v10.508C30.192,208.688,30.086,208.958,29.873,209.175z
		 M27.815,173.177c-0.669-0.672-1.004-1.483-1.004-2.435s0.336-1.762,1.007-2.431c0.673-0.669,1.484-1.004,2.436-1.004
		s1.762,0.336,2.431,1.008c0.669,0.672,1.004,1.483,1.004,2.435s-0.336,1.762-1.007,2.431c-0.673,0.669-1.484,1.004-2.436,1.004
		S28.484,173.849,27.815,173.177z"/>
	<path fill="#FFFFFF" d="M18.972,187.465H61.25v42.278H18.972V187.465z"/>
	<path fill="#00AF6B" d="M56.986,220.361l-1.125-2.982c-0.506-1.238-1.631-2.081-3.038-2.081h-0.506v-25.707H27.905v14.232h3.206
		l3.656-4.557c0.731-0.843,1.856-1.407,3.093-1.407h7.82c1.237,0,2.306,0.674,2.868,1.744l2.307,4.387
		c0.112,0.168,0.168,0.395,0.168,0.675c0,0.787-0.675,1.462-1.463,1.462c-0.619,0-1.068-0.281-1.35-0.787l-2.081-3.994h-3.375
		l2.587,6.469l0.788,8.268h6.693c1.07,0,1.914,0.676,2.307,1.576l0.731,1.912H44.386c-0.842,0-1.575-0.619-1.631-1.463l-0.788-7.255
		l-6.187,12.825c-0.338,0.731-1.126,1.238-2.025,1.238h-2.981l7.594-15.694l-2.362-5.906l-2.25,2.757
		c-0.562,0.731-1.52,1.237-2.531,1.237h-3.319v18.563l5.288,5.231H17.611v-45h45v45h-5.063l-5.23-5.231v-5.512H56.986z
		 M35.949,191.279c1.744,0,3.206,1.463,3.206,3.207c0,1.744-1.462,3.15-3.206,3.15s-3.15-1.406-3.15-3.15
		C32.799,192.742,34.205,191.279,35.949,191.279 M37.355,227.054l4.05,4.05h-4.895l-5.288-5.231h3.15
		C35.499,225.873,36.567,226.323,37.355,227.054"/>
</g>
<g id="Layer_6">
	<g>
		<circle fill="#8FBAFF" cx="1412.111" cy="80.938" r="35"/>
		<path fill="#FFFFFF" d="M1402.885,86.026v6.73c0,0.412,0.137,0.755,0.412,1.03s0.618,0.412,1.03,0.412h2.115
			c0.411,0,0.755-0.137,1.03-0.412c0.274-0.275,0.412-0.618,0.412-1.03v-6.73h0.558c0.446,0.039,0.798-0.087,1.056-0.377
			s0.387-0.645,0.387-1.065v-4c0-0.972-0.341-1.798-1.021-2.479c-0.681-0.681-1.507-1.021-2.479-1.021h-2
			c-0.973,0-1.799,0.34-2.479,1.021c-0.682,0.681-1.021,1.507-1.021,2.479v4c0,0.42,0.129,0.775,0.387,1.065
			s0.609,0.415,1.056,0.377H1402.885z M1405.381,75.383c0.692,0,1.288-0.248,1.787-0.743c0.498-0.496,0.748-1.091,0.748-1.783
			s-0.248-1.288-0.744-1.787c-0.496-0.499-1.09-0.748-1.783-0.748c-0.692,0-1.288,0.248-1.787,0.744
			c-0.498,0.496-0.748,1.09-0.748,1.782c0,0.693,0.248,1.289,0.744,1.787C1404.094,75.134,1404.688,75.383,1405.381,75.383z
			 M1415.581,79.468h6.088c0.251,0,0.431-0.097,0.542-0.289c0.11-0.192,0.102-0.39-0.026-0.592l-3.073-4.908
			c-0.109-0.182-0.268-0.272-0.473-0.272s-0.371,0.091-0.5,0.272l-3.073,4.908c-0.128,0.202-0.137,0.399-0.026,0.592
			C1415.15,79.372,1415.33,79.468,1415.581,79.468z M1419.111,90.988l3.073-4.908c0.128-0.202,0.137-0.399,0.026-0.592
			c-0.111-0.192-0.291-0.289-0.542-0.289h-6.088c-0.251,0-0.431,0.097-0.542,0.289c-0.11,0.192-0.102,0.39,0.026,0.592l3.073,4.908
			c0.109,0.182,0.268,0.272,0.473,0.272S1418.982,91.169,1419.111,90.988z M1397.885,99.333c-0.785,0-1.461-0.285-2.031-0.854
			c-0.568-0.569-0.854-1.246-0.854-2.031v-28.23c0-0.767,0.285-1.439,0.854-2.018c0.57-0.578,1.246-0.867,2.031-0.867h28.23
			c0.768,0,1.439,0.289,2.018,0.867s0.867,1.251,0.867,2.018v28.23c0,0.785-0.289,1.461-0.867,2.031s-1.25,0.854-2.018,0.854
			H1397.885z M1397.885,97.064h28.23c0.18,0,0.327-0.058,0.442-0.173s0.173-0.263,0.173-0.442v-28.23
			c0-0.18-0.058-0.327-0.173-0.442s-0.263-0.173-0.442-0.173h-28.23c-0.18,0-0.327,0.058-0.442,0.173s-0.173,0.263-0.173,0.442
			v28.23c0,0.18,0.058,0.327,0.173,0.442S1397.705,97.064,1397.885,97.064z M1397.27,97.064V67.603V97.064z"/>
	</g>
	<g>
		<circle fill="#8FBAFF" cx="1255.111" cy="80.938" r="35"/>
		<path fill="#FFFFFF" d="M1249.984,84.818H1254c0.322,0,0.592-0.108,0.809-0.325c0.217-0.218,0.326-0.487,0.326-0.809v-5.516h4.016
			c0.322,0,0.592-0.108,0.809-0.326c0.217-0.217,0.326-0.487,0.326-0.809v-5.565H1264c0.322,0,0.592-0.109,0.809-0.328
			c0.217-0.219,0.326-0.491,0.326-0.815c0-0.325-0.109-0.594-0.326-0.807s-0.486-0.319-0.809-0.319h-4.85
			c-0.322,0-0.592,0.109-0.81,0.326c-0.217,0.217-0.325,0.487-0.325,0.809v5.516H1254c-0.322,0-0.592,0.108-0.809,0.325
			c-0.217,0.218-0.326,0.487-0.326,0.809v5.516h-4.016c-0.322,0-0.592,0.108-0.809,0.326c-0.217,0.217-0.326,0.487-0.326,0.809
			v5.565H1244c-0.322,0-0.592,0.109-0.809,0.328c-0.217,0.219-0.326,0.491-0.326,0.815c0,0.325,0.109,0.594,0.326,0.807
			s0.486,0.319,0.809,0.319h4.85c0.322,0,0.592-0.109,0.81-0.326c0.217-0.217,0.325-0.487,0.325-0.809V84.818z M1239.885,97.333
			c-0.785,0-1.461-0.285-2.031-0.854c-0.568-0.569-0.854-1.246-0.854-2.031v-28.23c0-0.785,0.285-1.461,0.854-2.031
			c0.57-0.569,1.246-0.854,2.031-0.854h28.23c0.785,0,1.461,0.285,2.031,0.854c0.568,0.569,0.854,1.246,0.854,2.031v28.23
			c0,0.785-0.285,1.461-0.854,2.031c-0.57,0.569-1.246,0.854-2.031,0.854H1239.885z M1239.885,95.064h28.23
			c0.154,0,0.295-0.064,0.424-0.192c0.127-0.128,0.191-0.269,0.191-0.423v-28.23c0-0.154-0.064-0.295-0.191-0.423
			c-0.129-0.128-0.27-0.192-0.424-0.192h-28.23c-0.154,0-0.295,0.064-0.424,0.192c-0.127,0.128-0.191,0.269-0.191,0.423v28.23
			c0,0.154,0.064,0.295,0.191,0.423C1239.59,95,1239.73,95.064,1239.885,95.064z M1239.27,65.603v29.461V65.603z"/>
	</g>
	<g>
		<circle fill="#00AF6B" cx="1622.111" cy="80.938" r="35"/>
		<path fill="#FFFFFF" d="M1600.972,59.799h42.278v42.278h-42.278V59.799z"/>
		<path fill="#00AF6B" d="M1638.986,92.695l-1.125-2.982c-0.506-1.238-1.631-2.081-3.037-2.081h-0.506V61.925h-24.413v14.232h3.206
			l3.656-4.557c0.731-0.843,1.856-1.407,3.094-1.407h7.819c1.237,0,2.306,0.674,2.868,1.744l2.307,4.387
			c0.112,0.168,0.168,0.395,0.168,0.675c0,0.787-0.675,1.462-1.463,1.462c-0.618,0-1.067-0.281-1.35-0.787l-2.081-3.994h-3.375
			l2.587,6.469l0.788,8.268h6.693c1.069,0,1.913,0.676,2.308,1.576l0.73,1.912h-11.476c-0.843,0-1.575-0.619-1.631-1.463
			l-0.788-7.255l-6.186,12.825c-0.338,0.731-1.127,1.238-2.025,1.238h-2.982l7.594-15.694l-2.361-5.906l-2.25,2.757
			c-0.563,0.731-1.52,1.237-2.531,1.237h-3.319v18.563l5.288,5.231h-15.582v-45h45v45h-5.063l-5.229-5.231v-5.512H1638.986z
			 M1617.949,63.612c1.743,0,3.205,1.463,3.205,3.207c0,1.744-1.462,3.15-3.205,3.15c-1.744,0-3.15-1.406-3.15-3.15
			C1614.799,65.075,1616.205,63.612,1617.949,63.612 M1619.355,99.388l4.05,4.05h-4.895l-5.288-5.231h3.15
			C1617.498,98.207,1618.567,98.657,1619.355,99.388"/>
	</g>
	<text transform="matrix(1 0 0 1 1668.627 90.0986)" fill="#333333" font-family="'Pretendard-Medium-KSCpc-EUC-H'" font-size="21">비상탈출구</text>
	<text transform="matrix(1 0 0 1 1458.627 90.0986)" fill="#333333" font-family="'Pretendard-Medium-KSCpc-EUC-H'" font-size="21">엘레베이터</text>
	
		<text transform="matrix(1 0 0 1 1298.8506 90.0986)" fill="#333333" font-family="'Pretendard-Medium-KSCpc-EUC-H'" font-size="21">계단</text>
	<text transform="matrix(1 0 0 1 52.0391 106.9941)" fill="#1890FF" font-family="'Pretendard-Black-KSCpc-EUC-H'" font-size="72">2F</text>
	
		<text transform="matrix(1 0 0 1 159.875 104.1426)" fill="#727272" font-family="'Pretendard-SemiBold-KSCpc-EUC-H'" font-size="48">2층 평면도</text>
</g>
</svg>
