<?xml version="1.0" encoding="utf-8"?>
<!-- Generator: Adobe Illustrator 16.0.0, SVG Export Plug-In . SVG Version: 6.00 Build 0)  -->
<!DOCTYPE svg PUBLIC "-//W3C//DTD SVG 1.1//EN" "http://www.w3.org/Graphics/SVG/1.1/DTD/svg11.dtd">
<svg version="1.1" id="Livello_1" xmlns="http://www.w3.org/2000/svg" xmlns:xlink="http://www.w3.org/1999/xlink" x="0px" y="0px"
	 width="1400px" height="1800px" viewBox="0 0 1400 1800" enable-background="new 0 0 1400 1800" xml:space="preserve">
<title></title>
<path fill="#0066FF" d="M700,200C313.401,200,0,513.4,0,900s313.4,700,700,700c386.599,0,700-313.4,700-700
	C1399.577,513.575,1086.424,200.422,700,200z M700,1534.375c-350.356,0-634.375-284.02-634.375-634.375S349.644,265.625,700,265.625
	c350.355,0,634.375,284.02,634.375,634.375C1333.953,1250.181,1050.181,1533.953,700,1534.375z"/>
<path fill="#0066FF" d="M961.406,663.313l-409.938,403.156L439.36,948.453c-12.789-12.84-33.564-12.881-46.404-0.093
	c-12.407,12.357-12.924,32.28-1.174,45.265l135.078,142.188c6.057,6.356,14.408,10.021,23.187,10.172h0.547
	c8.593-0.007,16.84-3.385,22.969-9.406l433.673-426.563c12.927-12.716,13.098-33.503,0.383-46.43
	c-12.716-12.927-33.503-13.099-46.43-0.383L961.406,663.313z"/>
</svg>
