<?xml version="1.0" encoding="utf-8"?>
<!-- Generator: Adobe Illustrator 16.0.0, SVG Export Plug-In . SVG Version: 6.00 Build 0)  -->
<!DOCTYPE svg PUBLIC "-//W3C//DTD SVG 1.1//EN" "http://www.w3.org/Graphics/SVG/1.1/DTD/svg11.dtd">
<svg version="1.1" id="_1-Money_Bill" xmlns="http://www.w3.org/2000/svg" xmlns:xlink="http://www.w3.org/1999/xlink" x="0px"
	 y="0px" width="50px" height="50px" viewBox="0 0 50 50" enable-background="new 0 0 50 50" xml:space="preserve">
<title></title>
<path fill="#868686" d="M46.875,42.188H3.125C1.399,42.188,0,40.789,0,39.063V10.938c0-1.726,1.399-3.125,3.125-3.125h43.75
	c1.727,0,3.125,1.399,3.125,3.125v28.125C50,40.789,48.602,42.188,46.875,42.188z M3.125,10.938v28.125h43.75V10.938H3.125z"/>
<path fill="#868686" d="M25,34.375c-5.178,0-9.375-4.197-9.375-9.375s4.197-9.375,9.375-9.375s9.375,4.197,9.375,9.375
	S30.178,34.375,25,34.375z M25,18.75c-3.452,0-6.25,2.798-6.25,6.25c0,3.451,2.798,6.25,6.25,6.25c3.451,0,6.25-2.799,6.25-6.25
	C31.25,21.548,28.451,18.75,25,18.75z"/>
<rect x="7.813" y="23.438" fill="#868686" width="3.125" height="3.125"/>
<rect x="39.063" y="23.438" fill="#868686" width="3.125" height="3.125"/>
</svg>
