<?xml version="1.0" encoding="utf-8"?>
<!-- Generator: Adobe Illustrator 16.0.0, SVG Export Plug-In . SVG Version: 6.00 Build 0)  -->
<!DOCTYPE svg PUBLIC "-//W3C//DTD SVG 1.1//EN" "http://www.w3.org/Graphics/SVG/1.1/DTD/svg11.dtd">
<svg version="1.1" id="Layer_1" xmlns="http://www.w3.org/2000/svg" xmlns:xlink="http://www.w3.org/1999/xlink" x="0px" y="0px"
	 width="22px" height="22px" viewBox="14 14 22 22" enable-background="new 14 14 22 22" xml:space="preserve">
<g>
	<path d="M14,19.12h2.241v1.51h0.095c0.366-1.001,1.24-1.621,2.4-1.621c1.192,0,2.067,0.62,2.353,1.621h0.08
		c0.366-0.986,1.335-1.621,2.606-1.621c1.605,0,2.719,1.064,2.719,2.94v5.801H24.14v-5.341c0-0.986-0.572-1.462-1.351-1.462
		c-0.891,0-1.398,0.619-1.398,1.525v5.277h-2.29v-5.404c0-0.858-0.541-1.398-1.334-1.398c-0.795,0-1.416,0.636-1.416,1.621v5.181H14
		V19.12z"/>
	<path d="M28.179,30.946v-1.829c0.302,0.017,0.651,0.031,0.953,0.031c0.46,0,0.844-0.047,1.13-0.794l0.143-0.366l-3.1-8.869h2.463
		l1.813,6.358h0.095l1.829-6.358H36l-3.37,9.584c-0.493,1.384-1.431,2.288-3.259,2.288C28.91,30.992,28.48,30.977,28.179,30.946z"/>
</g>
</svg>
