<?xml version="1.0" encoding="utf-8"?>
<!-- Generator: Adobe Illustrator 16.0.0, SVG Export Plug-In . SVG Version: 6.00 Build 0)  -->
<!DOCTYPE svg PUBLIC "-//W3C//DTD SVG 1.1//EN" "http://www.w3.org/Graphics/SVG/1.1/DTD/svg11.dtd">
<svg version="1.1" id="Layer_1" xmlns="http://www.w3.org/2000/svg" xmlns:xlink="http://www.w3.org/1999/xlink" x="0px" y="0px"
	 width="50px" height="50px" viewBox="0 0 50 50" enable-background="new 0 0 50 50" xml:space="preserve">
<g>
	<path d="M5,14.308h4.075v2.745h0.173c0.665-1.82,2.254-2.947,4.364-2.947c2.167,0,3.757,1.127,4.277,2.947h0.144
		c0.665-1.792,2.428-2.947,4.74-2.947c2.919,0,4.943,1.935,4.943,5.346V30h-4.279v-9.711c0-1.792-1.04-2.658-2.456-2.658
		c-1.619,0-2.543,1.126-2.543,2.774V30h-4.162v-9.826c0-1.561-0.983-2.542-2.427-2.542c-1.445,0-2.573,1.156-2.573,2.947V30H5
		V14.308z"/>
	<path d="M30.779,35.811v-3.324c0.549,0.028,1.185,0.056,1.733,0.056c0.838,0,1.534-0.086,2.054-1.444l0.26-0.665L29.19,14.308
		h4.479l3.295,11.561h0.173l3.324-11.561H45l-6.128,17.427c-0.896,2.515-2.601,4.16-5.925,4.16
		C32.109,35.895,31.328,35.866,30.779,35.811z"/>
</g>
</svg>
