<?xml version="1.0" encoding="utf-8"?>
<!-- Generator: Adobe Illustrator 16.0.0, SVG Export Plug-In . SVG Version: 6.00 Build 0)  -->
<!DOCTYPE svg PUBLIC "-//W3C//DTD SVG 1.1//EN" "http://www.w3.org/Graphics/SVG/1.1/DTD/svg11.dtd">
<svg version="1.1" id="Layer_1" xmlns="http://www.w3.org/2000/svg" xmlns:xlink="http://www.w3.org/1999/xlink" x="0px" y="0px"
	 width="24px" height="24px" viewBox="0 0 24 24" enable-background="new 0 0 24 24" xml:space="preserve">
<path fill="#E0E0E0" d="M19.6,21l-6.3-6.3c-0.5,0.399-1.075,0.716-1.725,0.95C10.925,15.883,10.233,16,9.5,16
	c-1.817,0-3.354-0.629-4.612-1.888S3,11.316,3,9.5s0.629-3.354,1.888-4.612C6.146,3.629,7.683,3,9.5,3s3.354,0.629,4.612,1.888
	C15.371,6.146,16,7.684,16,9.5c0,0.733-0.117,1.425-0.35,2.075C15.416,12.225,15.1,12.8,14.7,13.3l6.3,6.3L19.6,21z M9.5,14
	c1.25,0,2.313-0.438,3.188-1.313S14,10.75,14,9.5s-0.438-2.313-1.313-3.188S10.75,5,9.5,5S7.188,5.438,6.313,6.313S5,8.25,5,9.5
	s0.438,2.313,1.313,3.188S8.25,14,9.5,14z"/>
</svg>
