<?xml version="1.0" encoding="utf-8"?>
<!-- Generator: Adobe Illustrator 16.0.0, SVG Export Plug-In . SVG Version: 6.00 Build 0)  -->
<!DOCTYPE svg PUBLIC "-//W3C//DTD SVG 1.1//EN" "http://www.w3.org/Graphics/SVG/1.1/DTD/svg11.dtd">
<svg version="1.1" id="Layer_1" xmlns="http://www.w3.org/2000/svg" xmlns:xlink="http://www.w3.org/1999/xlink" x="0px" y="0px"
	 width="27px" height="27px" viewBox="0 0 27 27" enable-background="new 0 0 27 27" xml:space="preserve">
<path fill="#FCFDF8" d="M25.926,11.508H10.417l14.982-4.012c0.275-0.076,0.508-0.261,0.646-0.512
	c0.146-0.242,0.187-0.535,0.106-0.809l-1.116-4.159c-0.294-1.138-1.452-1.823-2.591-1.531c-0.012,0.003-0.022,0.006-0.036,0.01
	L1.598,6.068C0.455,6.368-0.23,7.539,0.07,8.682c0.002,0.008,0.004,0.017,0.008,0.025l1.076,4.024V24.43
	c0,1.188,0.965,2.152,2.154,2.152h21.54c1.188,0,2.153-0.964,2.153-2.152V12.584C27.002,11.99,26.521,11.508,25.926,11.508z
	 M19.639,6.811l-9.37,2.503L6.326,7.025l9.355-2.504L19.639,6.811z"/>
</svg>
