<?xml version="1.0" encoding="utf-8"?>
<!-- Generator: Adobe Illustrator 16.0.0, SVG Export Plug-In . SVG Version: 6.00 Build 0)  -->
<!DOCTYPE svg PUBLIC "-//W3C//DTD SVG 1.1//EN" "http://www.w3.org/Graphics/SVG/1.1/DTD/svg11.dtd">
<svg version="1.1" id="Layer_1" xmlns="http://www.w3.org/2000/svg" xmlns:xlink="http://www.w3.org/1999/xlink" x="0px" y="0px"
	 width="841.891px" height="595.281px" viewBox="0 0 841.891 595.281" enable-background="new 0 0 841.891 595.281"
	 xml:space="preserve">
<rect x="123.304" y="0" fill="none" width="595.281" height="595.281"/>
<path fill="#3B3B3B" d="M625.573,241.833H357.696l258.808-69.295c4.757-1.325,8.78-4.51,11.162-8.836
	c2.553-4.183,3.228-9.246,1.86-13.952l-19.301-71.852c-5.05-19.652-25.075-31.49-44.728-26.44c-0.206,0.053-0.411,0.107-0.616,0.164
	L205.388,147.89c-19.753,5.175-31.57,25.383-26.395,45.136c0.039,0.146,0.078,0.294,0.118,0.44l18.603,69.526v202.07
	c0,20.548,16.657,37.205,37.205,37.205H606.97c20.548,0,37.205-16.657,37.205-37.205V260.435
	C644.176,250.161,635.846,241.833,625.573,241.833z M516.98,160.679L355.138,203.93l-68.132-39.53l161.609-43.251L516.98,160.679z"
	/>
</svg>
