<?xml version="1.0" encoding="utf-8"?>
<!-- Generator: Adobe Illustrator 16.0.0, SVG Export Plug-In . SVG Version: 6.00 Build 0)  -->
<!DOCTYPE svg PUBLIC "-//W3C//DTD SVG 1.1//EN" "http://www.w3.org/Graphics/SVG/1.1/DTD/svg11.dtd">
<svg version="1.1" id="Layer_1" xmlns="http://www.w3.org/2000/svg" xmlns:xlink="http://www.w3.org/1999/xlink" x="0px" y="0px"
	 width="27px" height="27px" viewBox="407.445 284.141 27 27" enable-background="new 407.445 284.141 27 27" xml:space="preserve">
<rect x="123.304" fill="none" width="595.281" height="595.281"/>
<path fill="#3B3B3B" d="M433.369,296.064h-15.508l14.982-4.011c0.275-0.077,0.508-0.261,0.646-0.512
	c0.147-0.242,0.187-0.535,0.107-0.808l-1.117-4.16c-0.293-1.138-1.452-1.823-2.59-1.531c-0.012,0.003-0.023,0.006-0.036,0.01
	l-20.811,5.573c-1.144,0.3-1.828,1.47-1.528,2.613c0.002,0.008,0.004,0.017,0.007,0.025l1.077,4.025v11.698
	c0,1.189,0.964,2.153,2.154,2.153h21.539c1.189,0,2.153-0.964,2.153-2.153v-11.846C434.445,296.547,433.964,296.064,433.369,296.064
	z M427.082,291.367l-9.369,2.503l-3.944-2.288l9.355-2.504L427.082,291.367z"/>
</svg>
