<?xml version="1.0" encoding="utf-8"?>
<!-- Generator: Adobe Illustrator 16.0.0, SVG Export Plug-In . SVG Version: 6.00 Build 0)  -->
<!DOCTYPE svg PUBLIC "-//W3C//DTD SVG 1.1//EN" "http://www.w3.org/Graphics/SVG/1.1/DTD/svg11.dtd">
<svg version="1.1" id="Layer_1" xmlns="http://www.w3.org/2000/svg" xmlns:xlink="http://www.w3.org/1999/xlink" x="0px" y="0px"
	 width="24px" height="24px" viewBox="0 0 24 24" enable-background="new 0 0 24 24" xml:space="preserve">
<path fill="#FFFFFF" d="M15.3,16.7l1.4-1.4L13,11.6V7h-2v5.4L15.3,16.7z M12,22c-1.383,0-2.683-0.263-3.9-0.787
	c-1.217-0.525-2.275-1.238-3.175-2.138c-0.9-0.9-1.612-1.958-2.137-3.175S2,13.383,2,12c0-1.383,0.263-2.684,0.788-3.9
	c0.525-1.217,1.237-2.275,2.137-3.175c0.9-0.9,1.958-1.612,3.175-2.137S10.617,2,12,2c1.383,0,2.684,0.263,3.9,0.788
	s2.274,1.237,3.175,2.137c0.899,0.9,1.612,1.958,2.138,3.175C21.737,9.316,22,10.617,22,12c0,1.383-0.263,2.684-0.787,3.9
	c-0.525,1.217-1.238,2.274-2.138,3.175c-0.9,0.899-1.958,1.612-3.175,2.138C14.684,21.737,13.383,22,12,22z M12,20
	c2.217,0,4.104-0.779,5.662-2.338S20,14.217,20,12s-0.779-4.104-2.338-5.663C16.104,4.779,14.217,4,12,4S7.896,4.779,6.337,6.337
	C4.779,7.896,4,9.783,4,12s0.779,4.104,2.337,5.662C7.896,19.221,9.783,20,12,20z"/>
</svg>
