<?xml version="1.0" encoding="utf-8"?>
<!-- Generator: Adobe Illustrator 16.0.0, SVG Export Plug-In . SVG Version: 6.00 Build 0)  -->
<!DOCTYPE svg PUBLIC "-//W3C//DTD SVG 1.1//EN" "http://www.w3.org/Graphics/SVG/1.1/DTD/svg11.dtd">
<svg version="1.1" id="Layer_1" xmlns="http://www.w3.org/2000/svg" xmlns:xlink="http://www.w3.org/1999/xlink" x="0px" y="0px"
	 width="50px" height="50px" viewBox="0 0 50 50" enable-background="new 0 0 50 50" xml:space="preserve">
<g>
	<path fill="#868686" d="M25,50C11.215,50,0,38.785,0,25S11.215,0,25,0s25,11.215,25,25S38.785,50,25,50z M25,4.268
		c-11.432,0-20.732,9.3-20.732,20.732S13.568,45.731,25,45.731S45.731,36.432,45.731,25S36.432,4.268,25,4.268z"/>
</g>
<g>
	<path fill="#868686" d="M25,34.756c-6.431,0-11.662-5.231-11.662-11.661c0-6.431,5.231-11.662,11.662-11.662
		c6.43,0,11.661,5.231,11.661,11.662C36.661,29.524,31.43,34.756,25,34.756z M25,15.701c-4.077,0-7.393,3.317-7.393,7.394
		c0,4.076,3.316,7.394,7.393,7.394c4.076,0,7.394-3.317,7.394-7.394C32.394,19.018,29.076,15.701,25,15.701z"/>
</g>
<g>
	<path fill="#868686" d="M9.707,44.141c-0.325,0-0.654-0.074-0.964-0.231c-1.051-0.533-1.471-1.818-0.938-2.868
		c2.332-4.594,6.313-8.004,11.209-9.603c4.896-1.6,10.122-1.196,14.715,1.137c3.673,1.865,6.601,4.793,8.465,8.466
		c0.534,1.05,0.114,2.335-0.937,2.868c-1.05,0.534-2.336,0.116-2.869-0.937c-1.452-2.859-3.731-5.14-6.591-6.591
		c-3.579-1.816-7.646-2.128-11.458-0.886c-3.813,1.244-6.912,3.899-8.728,7.477C11.235,43.714,10.485,44.141,9.707,44.141z"/>
</g>
</svg>
