<?xml version="1.0" encoding="utf-8"?>
<!-- Generator: Adobe Illustrator 16.0.0, SVG Export Plug-In . SVG Version: 6.00 Build 0)  -->
<!DOCTYPE svg PUBLIC "-//W3C//DTD SVG 1.1//EN" "http://www.w3.org/Graphics/SVG/1.1/DTD/svg11.dtd">
<svg version="1.1" xmlns="http://www.w3.org/2000/svg" xmlns:xlink="http://www.w3.org/1999/xlink" x="0px" y="0px" width="80px"
	 height="80px" viewBox="0 0 80 80" enable-background="new 0 0 80 80" xml:space="preserve">
<g id="Layer_1" display="none">
	<g display="inline">
		<g>
			
				<path fill="none" stroke="#737373" stroke-width="3.5" stroke-linecap="round" stroke-linejoin="round" stroke-miterlimit="10" d="
				M61.551,54.246H19.068c-3.56,0-6.445-2.886-6.445-6.445v-25.5c0-3.559,2.885-6.444,6.445-6.444h42.482
				c3.56,0,6.445,2.885,6.445,6.444v25.5C67.996,51.36,65.11,54.246,61.551,54.246z"/>
			
				<line fill="none" stroke="#737373" stroke-width="3.5" stroke-linecap="round" stroke-linejoin="round" stroke-miterlimit="10" x1="37.31" y1="54.246" x2="37.31" y2="64.271"/>
			
				<line fill="none" stroke="#737373" stroke-width="3.5" stroke-linecap="round" stroke-linejoin="round" stroke-miterlimit="10" x1="43.31" y1="54.246" x2="43.31" y2="64.271"/>
			
				<line fill="none" stroke="#737373" stroke-width="3.5" stroke-linecap="round" stroke-linejoin="round" stroke-miterlimit="10" x1="23.598" y1="64.271" x2="57.021" y2="64.271"/>
		</g>
	</g>
	<g display="inline">
		<g>
			
				<path fill="none" stroke="#737373" stroke-width="3.5" stroke-linecap="round" stroke-linejoin="round" stroke-miterlimit="10" d="
				M47.604,42.686c-4.028-4.028-10.559-4.028-14.587,0"/>
			
				<path fill="none" stroke="#737373" stroke-width="3.5" stroke-linecap="round" stroke-linejoin="round" stroke-miterlimit="10" d="
				M52.223,38.067c-6.58-6.579-17.246-6.579-23.825,0"/>
			
				<path fill="none" stroke="#737373" stroke-width="3.5" stroke-linecap="round" stroke-linejoin="round" stroke-miterlimit="10" d="
				M56.264,34.025c-8.811-8.812-23.097-8.812-31.908,0"/>
		</g>
	</g>
</g>
<g id="Layer_6" display="none">
	<g display="inline">
		
			<path fill="none" stroke="#737373" stroke-width="3.5" stroke-linecap="round" stroke-linejoin="round" stroke-miterlimit="10" d="
			M20.741,61.014h37.653c3.351,0,6.066-2.716,6.066-6.066V25.179c0-3.35-2.716-6.066-6.066-6.066H20.741
			c-3.351,0-6.066,2.716-6.066,6.066v29.768C14.675,58.298,17.391,61.014,20.741,61.014z"/>
		<rect x="54.371" y="23.787" fill="#737373" width="4.133" height="4.132"/>
		<rect x="54.371" y="31.081" fill="#737373" width="4.133" height="4.132"/>
		<rect x="54.371" y="38.375" fill="#737373" width="4.133" height="4.132"/>
		<rect x="54.371" y="45.67" fill="#737373" width="4.133" height="4.132"/>
		<rect x="54.371" y="52.964" fill="#737373" width="4.133" height="4.132"/>
		<rect x="20.632" y="23.787" fill="#737373" width="4.132" height="4.132"/>
		<rect x="20.632" y="31.081" fill="#737373" width="4.132" height="4.132"/>
		<rect x="20.632" y="38.375" fill="#737373" width="4.132" height="4.132"/>
		<rect x="20.632" y="45.67" fill="#737373" width="4.132" height="4.132"/>
		<rect x="20.632" y="52.964" fill="#737373" width="4.132" height="4.132"/>
	</g>
</g>
<g id="Layer_5" display="none">
	<g display="inline">
		<g>
			
				<path fill="none" stroke="#737373" stroke-width="3.5" stroke-linecap="round" stroke-linejoin="round" stroke-miterlimit="10" d="
				M64.094,61.179c-0.42,0-0.824-0.13-1.166-0.377l-10.188-7.358v4.222c0,1.099-0.894,1.993-1.993,1.993H15.268
				c-1.1,0-1.994-0.895-1.994-1.993V29.788c0-1.099,0.894-1.993,1.994-1.993h35.479c1.1,0,1.993,0.894,1.993,1.993v4.222
				l10.188-7.359c0.609-0.435,1.401-0.497,2.071-0.16c0.002,0.001,0.004,0.002,0.005,0.003c0.669,0.343,1.085,1.023,1.085,1.774
				v30.917c0,0.752-0.416,1.432-1.085,1.774C64.714,61.104,64.402,61.179,64.094,61.179z"/>
		</g>
		
			<polyline fill="none" stroke="#737373" stroke-width="3.5" stroke-linecap="round" stroke-linejoin="round" stroke-miterlimit="10" points="
			44.076,27.795 39.775,18.948 13.274,18.948 		"/>
		
			<line fill="none" stroke="#77C2D9" stroke-width="3.5" stroke-linecap="round" stroke-linejoin="round" stroke-miterlimit="10" x1="20.938" y1="36.773" x2="45.076" y2="36.773"/>
	</g>
</g>
<g id="Layer_3">
	<g>
		<circle fill="#737373" cx="39.882" cy="40.434" r="2.924"/>
		
			<path fill="none" stroke="#737373" stroke-width="3.5" stroke-linecap="round" stroke-linejoin="round" stroke-miterlimit="10" d="
			M50.959,43.358c0-7.732-6.269-14-14.001-14"/>
		
			<path fill="none" stroke="#737373" stroke-width="3.5" stroke-linecap="round" stroke-linejoin="round" stroke-miterlimit="10" d="
			M59.825,43.358c0-12.629-10.237-22.867-22.867-22.867"/>
		
			<path fill="none" stroke="#737373" stroke-width="3.5" stroke-linecap="round" stroke-linejoin="round" stroke-miterlimit="10" d="
			M67.584,43.358c0-16.914-13.712-30.625-30.626-30.625"/>
		
			<path fill="none" stroke="#737373" stroke-width="3.5" stroke-linecap="round" stroke-linejoin="round" stroke-miterlimit="10" d="
			M28.806,37.51c0,7.732,6.269,14,14.001,14"/>
		
			<path fill="none" stroke="#737373" stroke-width="3.5" stroke-linecap="round" stroke-linejoin="round" stroke-miterlimit="10" d="
			M19.939,37.51c0,12.628,10.238,22.867,22.867,22.867"/>
		
			<path fill="none" stroke="#737373" stroke-width="3.5" stroke-linecap="round" stroke-linejoin="round" stroke-miterlimit="10" d="
			M12.181,37.51c0,16.914,13.712,30.625,30.626,30.625"/>
	</g>
</g>
<g id="Layer_4" display="none">
	<g display="inline">
		
			<line fill="none" stroke="#737373" stroke-width="3.5" stroke-linecap="round" stroke-linejoin="round" stroke-miterlimit="10" x1="15.956" y1="60.782" x2="27.771" y2="60.782"/>
		
			<line fill="none" stroke="#737373" stroke-width="3.5" stroke-linecap="round" stroke-linejoin="round" stroke-miterlimit="10" x1="15.956" y1="52.643" x2="27.771" y2="52.643"/>
		
			<line fill="none" stroke="#737373" stroke-width="3.5" stroke-linecap="round" stroke-linejoin="round" stroke-miterlimit="10" x1="15.956" y1="44.504" x2="27.771" y2="44.504"/>
		
			<line fill="none" stroke="#737373" stroke-width="3.5" stroke-linecap="round" stroke-linejoin="round" stroke-miterlimit="10" x1="15.956" y1="36.365" x2="27.771" y2="36.365"/>
		
			<line fill="none" stroke="#737373" stroke-width="3.5" stroke-linecap="round" stroke-linejoin="round" stroke-miterlimit="10" x1="15.956" y1="28.226" x2="27.771" y2="28.226"/>
		
			<line fill="none" stroke="#737373" stroke-width="3.5" stroke-linecap="round" stroke-linejoin="round" stroke-miterlimit="10" x1="15.956" y1="20.086" x2="27.771" y2="20.086"/>
		
			<line fill="none" stroke="#737373" stroke-width="3.5" stroke-linecap="round" stroke-linejoin="round" stroke-miterlimit="10" x1="33.773" y1="60.782" x2="45.588" y2="60.782"/>
		
			<line fill="none" stroke="#737373" stroke-width="3.5" stroke-linecap="round" stroke-linejoin="round" stroke-miterlimit="10" x1="33.773" y1="52.643" x2="45.588" y2="52.643"/>
		
			<line fill="none" stroke="#737373" stroke-width="3.5" stroke-linecap="round" stroke-linejoin="round" stroke-miterlimit="10" x1="33.773" y1="44.504" x2="45.588" y2="44.504"/>
		
			<line fill="none" stroke="#737373" stroke-width="3.5" stroke-linecap="round" stroke-linejoin="round" stroke-miterlimit="10" x1="51.591" y1="60.782" x2="63.406" y2="60.782"/>
		
			<line fill="none" stroke="#737373" stroke-width="3.5" stroke-linecap="round" stroke-linejoin="round" stroke-miterlimit="10" x1="51.591" y1="52.643" x2="63.406" y2="52.643"/>
		
			<line fill="none" stroke="#737373" stroke-width="3.5" stroke-linecap="round" stroke-linejoin="round" stroke-miterlimit="10" x1="51.591" y1="44.504" x2="63.406" y2="44.504"/>
		
			<line fill="none" stroke="#737373" stroke-width="3.5" stroke-linecap="round" stroke-linejoin="round" stroke-miterlimit="10" x1="51.591" y1="36.365" x2="63.406" y2="36.365"/>
		
			<line fill="none" stroke="#737373" stroke-width="3.5" stroke-linecap="round" stroke-linejoin="round" stroke-miterlimit="10" x1="51.591" y1="28.226" x2="63.406" y2="28.226"/>
	</g>
</g>
<g id="Layer_2" display="none">
	<g display="inline">
		<g>
			
				<path fill="none" stroke="#737373" stroke-width="3.5" stroke-linecap="round" stroke-linejoin="round" stroke-miterlimit="10" d="
				M16.101,26.325c-7.265,8.04-7.265,21.076,0,29.116"/>
			
				<path fill="none" stroke="#737373" stroke-width="3.5" stroke-linecap="round" stroke-linejoin="round" stroke-miterlimit="10" d="
				M9.832,21.385c-9.729,10.769-9.729,28.229,0,38.996"/>
		</g>
		<g>
			
				<path fill="none" stroke="#737373" stroke-width="3.5" stroke-linecap="round" stroke-linejoin="round" stroke-miterlimit="10" d="
				M64.406,26.325c7.265,8.04,7.265,21.076,0,29.116"/>
			
				<path fill="none" stroke="#737373" stroke-width="3.5" stroke-linecap="round" stroke-linejoin="round" stroke-miterlimit="10" d="
				M70.674,21.385c9.73,10.769,9.73,28.229,0,38.996"/>
		</g>
		<g>
			<g>
				<path fill="#737373" d="M36.237,47.224c-0.127,0-0.255-0.033-0.369-0.1c-0.229-0.132-0.37-0.376-0.37-0.64V34.901
					c0-0.264,0.142-0.509,0.37-0.641c0.229-0.133,0.51-0.133,0.739,0l10.031,5.792c0.229,0.132,0.369,0.376,0.369,0.64
					s-0.141,0.509-0.369,0.641l-10.031,5.791C36.493,47.19,36.365,47.224,36.237,47.224z"/>
			</g>
			
				<path fill="none" stroke="#737373" stroke-width="3.5" stroke-linecap="round" stroke-linejoin="round" stroke-miterlimit="10" d="
				M50.896,28.92H29.611c-2.318,0-4.197,1.879-4.197,4.196v15.111c0,2.317,1.879,4.197,4.197,4.197h21.284
				c2.317,0,4.196-1.88,4.196-4.197V33.116C55.092,30.799,53.213,28.92,50.896,28.92z"/>
		</g>
	</g>
</g>
</svg>
