<?xml version="1.0" encoding="utf-8"?>
<!-- Generator: Adobe Illustrator 16.0.0, SVG Export Plug-In . SVG Version: 6.00 Build 0)  -->
<!DOCTYPE svg PUBLIC "-//W3C//DTD SVG 1.1//EN" "http://www.w3.org/Graphics/SVG/1.1/DTD/svg11.dtd">
<svg version="1.1" id="Layer_1" xmlns="http://www.w3.org/2000/svg" xmlns:xlink="http://www.w3.org/1999/xlink" x="0px" y="0px"
	 width="22px" height="22px" viewBox="245 245 22 22" enable-background="new 245 245 22 22" xml:space="preserve">
<g id="_x33_95-youtube">
	<g>
		<path fill="#FF0000" d="M266.54,250.687c-0.253-0.953-0.998-1.703-1.945-1.958c-1.715-0.462-8.595-0.462-8.595-0.462
			s-6.879,0-8.595,0.463c-0.947,0.254-1.692,1.005-1.945,1.958c-0.459,1.727-0.459,5.33-0.459,5.33s0,3.603,0.459,5.33
			c0.253,0.953,0.999,1.672,1.945,1.927c1.716,0.463,8.595,0.463,8.595,0.463s6.88,0,8.595-0.463
			c0.947-0.255,1.692-0.974,1.945-1.927c0.46-1.727,0.46-5.33,0.46-5.33S267,252.413,266.54,250.687z"/>
		<polygon fill="#FFFFFF" points="253.75,259.287 253.75,252.745 259.5,256.016 		"/>
	</g>
</g>
<g id="Layer_1_1_">
</g>
</svg>
